#N canvas 599 281 450 300 10;
#X obj 84 37 inlet~;
#X obj 74 246 outlet~;
#X obj 117 132 delread~ \$0-comb \$1;
#X obj 118 97 delwrite~ \$0-comb 100;
#X obj 290 52 inlet;
#X obj 89 75 +~;
#X obj 160 167 *~;
#X obj 167 219 lop~ 3000;
#X connect 0 0 5 0;
#X connect 2 0 1 0;
#X connect 2 0 6 0;
#X connect 4 0 6 1;
#X connect 5 0 3 0;
#X connect 6 0 7 0;
#X connect 7 0 5 1;
