#N canvas 798 45 960 216 12;
#N canvas 20 549 1136 640 mixer 0;
#X obj 31 11 receive~ channelA;
#X obj 32 42 mixer-component;
#X obj 304 42 mixer-component;
#X obj 304 12 receive~ channelB;
#X obj 584 42 mixer-component;
#X obj 585 13 receive~ channelC;
#X obj 860 43 mixer-component;
#X obj 860 13 receive~ channelD;
#X connect 0 0 1 0;
#X connect 3 0 2 0;
#X connect 5 0 4 0;
#X connect 7 0 6 0;
#X restore 16 38 pd mixer;
#N canvas 767 288 960 659 sequencer 0;
#N canvas 127 19 1138 720 noteA 0;
#X obj 9 23 inlet;
#X floatatom 71 85 5 0 0 0 - - -;
#X text 15 4 hit;
#X text 77 5 tone vel length sample# start attack decay;
#X floatatom 127 85 5 0 0 0 - - -;
#X floatatom 183 85 5 0 0 0 - - -;
#X floatatom 244 85 5 0 0 0 - - -;
#X floatatom 306 91 5 0 0 0 - - -;
#X floatatom 362 91 5 0 0 0 - - -;
#X floatatom 410 91 5 0 0 0 - - -;
#X obj 44 214 pack 60 99 50 1 1 3 3;
#X obj 465 42 loadbang;
#X obj 281 241 r tempo;
#X obj 229 318 metro;
#X msg 171 304 stop;
#X msg 202 275 bang;
#X obj 113 324 / 10;
#X obj 70 369 + 59.9;
#X obj 229 349 random 10;
#X obj 148 37 bng 15 250 50 0 empty empty empty 0 -6 0 8 -262144 -1
-1;
#X msg 653 73 0;
#X obj 671 204 + 1;
#X obj 424 12 random 3;
#X obj 407 57 + 1;
#X obj 655 184 f;
#X msg 633 238 0;
#X obj 693 244 select 5;
#X obj 631 267 select 1 2 3 4 5;
#X obj 570 371 / 10;
#X obj 650 372 / 10;
#X obj 813 176 + 1;
#X obj 818 140 f;
#X msg 775 210 0;
#X obj 835 217 select 5;
#X obj 608 371 + 80;
#X obj 688 372 + 79;
#X obj 569 349 random 40;
#X obj 649 350 random 40;
#X obj 457 385 + 1;
#X obj 441 365 f;
#X msg 419 419 0;
#X obj 479 425 select 5;
#X obj 417 448 select 1 2 3 4 5;
#X msg 355 515 1315;
#X msg 416 517 212;
#X msg 466 517 584;
#X msg 522 516 1119;
#X obj 305 431 random 5;
#X obj 504 600 +;
#X obj 580 545 random 5;
#X msg 702 73 1;
#X msg 555 73 13;
#X obj 44 245 s notea;
#X obj 254 28 random 20;
#X msg 746 73 15;
#X msg 465 73 60;
#X msg 510 73 100;
#X msg 605 73 1;
#X connect 0 0 1 0;
#X connect 0 0 19 0;
#X connect 1 0 10 0;
#X connect 4 0 10 1;
#X connect 5 0 10 2;
#X connect 6 0 10 3;
#X connect 7 0 10 4;
#X connect 8 0 10 5;
#X connect 9 0 10 6;
#X connect 10 0 52 0;
#X connect 11 0 55 0;
#X connect 11 0 56 0;
#X connect 11 0 51 0;
#X connect 11 0 57 0;
#X connect 11 0 20 0;
#X connect 11 0 50 0;
#X connect 11 0 54 0;
#X connect 12 0 13 1;
#X connect 12 0 15 0;
#X connect 13 0 18 0;
#X connect 14 0 13 0;
#X connect 15 0 13 0;
#X connect 16 0 17 0;
#X connect 18 0 16 0;
#X connect 19 0 4 0;
#X connect 19 0 5 0;
#X connect 19 0 6 0;
#X connect 19 0 7 0;
#X connect 19 0 8 0;
#X connect 19 0 9 0;
#X connect 19 0 24 0;
#X connect 19 0 47 0;
#X connect 19 0 49 0;
#X connect 20 0 7 0;
#X connect 21 0 24 1;
#X connect 21 0 26 0;
#X connect 21 0 27 0;
#X connect 22 0 23 0;
#X connect 23 0 6 0;
#X connect 24 0 21 0;
#X connect 25 0 24 0;
#X connect 26 0 25 0;
#X connect 27 0 36 0;
#X connect 27 1 37 0;
#X connect 27 2 36 0;
#X connect 27 3 37 0;
#X connect 27 4 36 0;
#X connect 28 0 34 0;
#X connect 29 0 35 0;
#X connect 30 0 31 1;
#X connect 30 0 33 0;
#X connect 31 0 30 0;
#X connect 32 0 31 0;
#X connect 33 0 32 0;
#X connect 36 0 28 0;
#X connect 37 0 29 0;
#X connect 38 0 39 1;
#X connect 38 0 41 0;
#X connect 38 0 42 0;
#X connect 39 0 38 0;
#X connect 40 0 39 0;
#X connect 41 0 40 0;
#X connect 42 0 43 0;
#X connect 42 1 44 0;
#X connect 42 2 45 0;
#X connect 43 0 48 0;
#X connect 44 0 48 0;
#X connect 45 0 48 0;
#X connect 46 0 48 0;
#X connect 47 0 42 0;
#X connect 49 0 48 1;
#X connect 50 0 8 0;
#X connect 51 0 5 0;
#X connect 53 0 5 0;
#X connect 54 0 9 0;
#X connect 55 0 1 0;
#X connect 56 0 4 0;
#X connect 57 0 6 0;
#X restore 803 -288 pd noteA;
#N canvas 52 245 1138 682 noteB 0;
#X obj 9 23 inlet;
#X floatatom 71 85 5 0 0 0 - - -;
#X text 15 4 hit;
#X text 77 5 tone vel length sample# start attack decay;
#X floatatom 127 85 5 0 0 0 - - -;
#X floatatom 183 85 5 0 0 0 - - -;
#X floatatom 250 90 5 0 0 0 - - -;
#X floatatom 306 91 5 0 0 0 - - -;
#X floatatom 362 91 5 0 0 0 - - -;
#X floatatom 410 91 5 0 0 0 - - -;
#X obj 465 42 loadbang;
#X obj 281 241 r tempo;
#X obj 229 318 metro;
#X msg 171 304 stop;
#X msg 202 275 bang;
#X obj 113 324 / 10;
#X obj 70 369 + 59.9;
#X obj 229 349 random 10;
#X obj 148 37 bng 15 250 50 0 empty empty empty 0 -6 0 8 -262144 -1
-1;
#X msg 691 73 0;
#X obj 671 204 + 1;
#X obj 676 168 f;
#X msg 633 238 0;
#X obj 693 244 select 5;
#X obj 631 267 select 1 2 3 4 5;
#X obj 570 371 / 10;
#X obj 835 169 + 1;
#X msg 775 210 0;
#X obj 608 371 + 94;
#X obj 569 349 random 20;
#X obj 842 133 f 4;
#X obj 836 217 select 5;
#X obj 723 142 + 3;
#X msg 505 74 60;
#X obj 425 370 + 1;
#X obj 430 334 f;
#X msg 387 404 0;
#X obj 447 410 select 5;
#X obj 385 433 select 1 2 3 4 5;
#X msg 391 472 405;
#X msg 448 477 956;
#X obj 336 315 random 5;
#X obj 556 433 random 5;
#X obj 545 480 +;
#X msg 733 73 1;
#X obj 44 245 s notec;
#X msg 545 73 100;
#X floatatom 466 99 5 0 0 0 - - -;
#X msg 824 73 0;
#X obj 44 214 pack 60 99 50 1 1 3 3 0;
#X obj 328 31 random 50;
#X msg 593 73 20;
#X obj 405 22 random 50;
#X obj 411 46 + 100;
#X msg 784 74 100;
#X msg 643 73 1;
#X connect 0 0 1 0;
#X connect 0 0 18 0;
#X connect 1 0 49 0;
#X connect 4 0 49 1;
#X connect 5 0 49 2;
#X connect 6 0 49 3;
#X connect 7 0 49 4;
#X connect 8 0 49 5;
#X connect 9 0 49 6;
#X connect 10 0 46 0;
#X connect 10 0 51 0;
#X connect 10 0 55 0;
#X connect 10 0 19 0;
#X connect 10 0 44 0;
#X connect 10 0 54 0;
#X connect 10 0 33 0;
#X connect 11 0 12 1;
#X connect 11 0 14 0;
#X connect 12 0 17 0;
#X connect 13 0 12 0;
#X connect 14 0 12 0;
#X connect 15 0 16 0;
#X connect 17 0 15 0;
#X connect 18 0 4 0;
#X connect 18 0 5 0;
#X connect 18 0 7 0;
#X connect 18 0 8 0;
#X connect 18 0 9 0;
#X connect 18 0 6 0;
#X connect 18 0 30 0;
#X connect 18 0 41 0;
#X connect 18 0 42 0;
#X connect 18 0 52 0;
#X connect 19 0 7 0;
#X connect 20 0 21 1;
#X connect 20 0 23 0;
#X connect 20 0 24 0;
#X connect 21 0 20 0;
#X connect 22 0 21 0;
#X connect 23 0 22 0;
#X connect 24 0 29 0;
#X connect 24 2 29 0;
#X connect 24 4 29 0;
#X connect 25 0 28 0;
#X connect 26 0 30 1;
#X connect 26 0 31 0;
#X connect 26 0 32 0;
#X connect 27 0 30 0;
#X connect 28 0 4 0;
#X connect 29 0 25 0;
#X connect 30 0 26 0;
#X connect 31 0 27 0;
#X connect 33 0 1 0;
#X connect 34 0 35 1;
#X connect 34 0 37 0;
#X connect 34 0 38 0;
#X connect 35 0 34 0;
#X connect 36 0 35 0;
#X connect 37 0 36 0;
#X connect 38 0 39 0;
#X connect 38 1 40 0;
#X connect 38 2 39 0;
#X connect 38 3 40 0;
#X connect 39 0 43 0;
#X connect 40 0 43 0;
#X connect 41 0 38 0;
#X connect 42 0 43 1;
#X connect 44 0 8 0;
#X connect 46 0 4 0;
#X connect 47 0 49 7;
#X connect 49 0 45 0;
#X connect 50 0 7 0;
#X connect 51 0 5 0;
#X connect 52 0 53 0;
#X connect 54 0 9 0;
#X connect 55 0 6 0;
#X restore 805 -252 pd noteB;
#N canvas 0 65 1138 708 noteD 0;
#X obj 9 23 inlet;
#X floatatom 69 85 5 0 0 0 - - -;
#X text 15 4 hit;
#X text 77 5 tone vel length sample# start attack decay;
#X floatatom 128 87 5 0 0 0 - - -;
#X floatatom 184 85 5 0 0 0 - - -;
#X floatatom 244 85 5 0 0 0 - - -;
#X floatatom 306 91 5 0 0 0 - - -;
#X floatatom 362 91 5 0 0 0 - - -;
#X floatatom 410 91 5 0 0 0 - - -;
#X obj 44 214 pack 60 99 50 1 1 3 3;
#X obj 465 42 loadbang;
#X obj 281 241 r tempo;
#X obj 229 318 metro;
#X msg 171 304 stop;
#X msg 202 275 bang;
#X obj 148 249 / 10;
#X obj 105 294 + 59.9;
#X obj 234 253 random 10;
#X obj 151 43 bng 15 250 50 0 empty empty empty 0 -6 0 8 -262144 -1
-1;
#X msg 653 73 0;
#X obj 671 204 + 1;
#X obj 424 12 random 3;
#X obj 407 57 + 1;
#X obj 676 168 f;
#X msg 633 238 0;
#X obj 693 244 select 5;
#X obj 631 267 select 1 2 3 4 5;
#X obj 570 371 / 10;
#X obj 569 349 random 70;
#X obj 608 371 + 92;
#X obj 813 176 + 1;
#X msg 775 210 0;
#X obj 818 140 f 1;
#X obj 835 217 select 3;
#X obj 733 154 + 7;
#X obj 381 354 + 1;
#X obj 386 318 f;
#X msg 343 388 0;
#X obj 403 394 select 5;
#X obj 341 417 select 1 2 3 4 5;
#X msg 465 73 60;
#X msg 395 459 753;
#X obj 274 384 random 5;
#X obj 161 435 line~;
#X obj 33 436 *~;
#X obj 26 599 dac~;
#X obj 34 572 *~ 0;
#X obj 70 542 hsl 128 15 0 0.9 0 0 empty empty Volume_0-1 -2 -6 0 8
-262144 -1 -1 9878 1;
#X obj 15 277 bng 15 250 50 0 empty empty empty 0 -6 0 8 -241291 -1
-1;
#X obj 31 405 osc~;
#X obj 32 375 line~;
#X obj 306 539 loadbang;
#X msg 341 458 753;
#X msg 702 73 1;
#X msg 510 73 100;
#X msg 82 369 0.5;
#X msg 309 584 0.7;
#X obj 127 344 delay 1;
#X msg 128 378 0;
#X obj 200 347 delay 2;
#X msg 162 383 1 2;
#X msg 31 349 222 \, 42 33;
#X msg 206 382 0 210;
#X obj 44 245 s noted;
#X msg 555 73 8;
#X obj 289 38 random 12;
#X msg 751 71 129;
#X msg 607 75 1;
#X connect 0 0 19 0;
#X connect 1 0 10 0;
#X connect 4 0 10 1;
#X connect 5 0 10 2;
#X connect 6 0 10 3;
#X connect 7 0 10 4;
#X connect 8 0 10 5;
#X connect 9 0 10 6;
#X connect 10 0 64 0;
#X connect 11 0 41 0;
#X connect 11 0 55 0;
#X connect 11 0 65 0;
#X connect 11 0 68 0;
#X connect 11 0 20 0;
#X connect 11 0 54 0;
#X connect 11 0 67 0;
#X connect 12 0 13 1;
#X connect 12 0 15 0;
#X connect 13 0 18 0;
#X connect 14 0 13 0;
#X connect 15 0 13 0;
#X connect 16 0 17 0;
#X connect 18 0 16 0;
#X connect 19 0 4 0;
#X connect 19 0 5 0;
#X connect 19 0 6 0;
#X connect 19 0 7 0;
#X connect 19 0 8 0;
#X connect 19 0 9 0;
#X connect 19 0 43 0;
#X connect 19 0 1 0;
#X connect 19 0 66 0;
#X connect 20 0 7 0;
#X connect 21 0 24 1;
#X connect 21 0 26 0;
#X connect 21 0 27 0;
#X connect 22 0 23 0;
#X connect 23 0 6 0;
#X connect 24 0 21 0;
#X connect 25 0 24 0;
#X connect 26 0 25 0;
#X connect 27 0 29 0;
#X connect 27 2 29 0;
#X connect 27 4 29 0;
#X connect 28 0 30 0;
#X connect 29 0 28 0;
#X connect 31 0 33 1;
#X connect 31 0 34 0;
#X connect 31 0 35 0;
#X connect 32 0 33 0;
#X connect 33 0 31 0;
#X connect 34 0 32 0;
#X connect 35 0 6 0;
#X connect 36 0 37 1;
#X connect 36 0 39 0;
#X connect 36 0 40 0;
#X connect 37 0 36 0;
#X connect 38 0 37 0;
#X connect 39 0 38 0;
#X connect 40 0 53 0;
#X connect 40 1 42 0;
#X connect 40 2 53 0;
#X connect 40 3 42 0;
#X connect 41 0 1 0;
#X connect 43 0 40 0;
#X connect 44 0 45 1;
#X connect 45 0 47 0;
#X connect 47 0 46 0;
#X connect 47 0 46 1;
#X connect 48 0 47 1;
#X connect 49 0 62 0;
#X connect 49 0 56 0;
#X connect 49 0 58 0;
#X connect 49 0 59 0;
#X connect 49 0 60 0;
#X connect 50 0 45 0;
#X connect 51 0 50 0;
#X connect 52 0 57 0;
#X connect 54 0 8 0;
#X connect 55 0 4 0;
#X connect 56 0 50 1;
#X connect 57 0 48 0;
#X connect 58 0 61 0;
#X connect 59 0 44 0;
#X connect 60 0 63 0;
#X connect 61 0 44 0;
#X connect 62 0 51 0;
#X connect 63 0 44 0;
#X connect 65 0 5 0;
#X connect 66 0 7 0;
#X connect 67 0 9 0;
#X connect 68 0 6 0;
#X restore 808 -183 pd noteD;
#N canvas 145 80 897 636 mapD 0;
#X obj 45 580 outlet;
#X msg 355 208 \; div 5 1 2 3 4 -5 -6 -2 5 39 39 3 83 3;
#X msg 403 74 \; div xticks 0 1 80;
#X msg 372 137 \; div yticks 0 1 20;
#X obj 45 340 bng 15 250 50 0 empty empty empty 0 -6 0 8 -262144 -1
-1;
#X obj 45 548 bng 15 250 50 0 empty empty empty 0 -6 0 8 -262144 -1
-1;
#X obj 45 400 pipe;
#X obj 45 504 moses;
#X obj 45 455 random 100;
#X obj 137 542 bng 15 250 50 0 empty empty empty 0 -6 0 8 -262144 -1
-1;
#X obj 46 430 bng 15 250 50 0 empty empty empty 0 -6 0 8 -262144 -1
-1;
#X obj 312 267 loadbang;
#X obj 42 258 inlet;
#X obj 107 358 tabread probD;
#X obj 74 317 tabread pipeD;
#X msg 402 329 \; probD bounds 0 100 16 0 \; probD resize 16 \; probD
xticks 0 4 16 \; probD yticks 0 10 100;
#X msg 339 455 \; pipeD bounds 0 500 16 0 \; pipeD resize 16 \; pipeD
xticks 0 4 16 \; pipeD yticks 0 10 10;
#X obj 14 375 delay 1;
#X connect 4 0 17 0;
#X connect 5 0 0 0;
#X connect 6 0 10 0;
#X connect 7 0 5 0;
#X connect 7 1 9 0;
#X connect 8 0 7 0;
#X connect 10 0 8 0;
#X connect 11 0 15 0;
#X connect 11 0 16 0;
#X connect 12 0 4 0;
#X connect 12 0 13 0;
#X connect 12 0 14 0;
#X connect 13 0 7 1;
#X connect 14 0 6 1;
#X connect 17 0 8 0;
#X restore 808 -220 pd mapD;
#X obj 738 -120 table pipeA;
#X obj 680 -365 table pipeB;
#X obj 781 -121 table pipeC;
#X obj 746 -385 table pipeD;
#N canvas 10 36 1138 800 tables 0;
#N canvas 0 0 450 300 (subpatch) 0;
#X array probA 16 float 0;
#X coords 0 100 15 0 200 140 1;
#X restore 55 24 graph;
#N canvas 0 0 450 300 (subpatch) 0;
#X array probB 16 float 0;
#X coords 0 100 15 0 200 140 1;
#X restore 40 174 graph;
#N canvas 0 0 450 300 (subpatch) 0;
#X array probC 16 float 0;
#X coords 0 100 15 0 200 140 1;
#X restore 43 335 graph;
#N canvas 0 0 450 300 (subpatch) 0;
#X array probD 16 float 0;
#X coords 0 100 15 0 200 140 1;
#X restore 43 488 graph;
#N canvas 0 0 452 302 (subpatch) 0;
#X array prob5 18 float 0;
#X coords 0 100 17 0 200 140 1;
#X restore 373 193 graph;
#N canvas 0 0 450 300 (subpatch) 0;
#X array prob4 16 float 0;
#X coords 0 100 15 0 200 140 1;
#X restore 363 18 graph;
#N canvas 0 0 450 300 (subpatch) 0;
#X array probF 16 float 0;
#X coords 0 100 15 0 200 140 1;
#X restore 370 359 graph;
#N canvas 0 0 450 300 (subpatch) 0;
#X array probg 16 float 0;
#X coords 0 100 15 0 200 140 1;
#X restore 380 526 graph;
#N canvas 0 0 450 300 (subpatch) 0;
#X array probh 16 float 0;
#X coords 0 100 15 0 200 140 1;
#X restore 661 17 graph;
#X restore 701 -282 pd tables;
#N canvas 646 133 984 737 PIANO2 0;
#X obj 9 23 inlet;
#X floatatom 84 160 5 0 0 0 - - -;
#X text 15 4 hit;
#X floatatom 140 160 5 0 0 0 - - -;
#X floatatom 196 160 5 0 0 0 - - -;
#X floatatom 257 160 5 0 0 0 - - -;
#X floatatom 312 164 5 0 0 0 - - -;
#X floatatom 375 166 5 0 0 0 - - -;
#X floatatom 423 166 5 0 0 0 - - -;
#X obj 57 289 pack 60 99 50 1 1 3 3;
#X obj 479 113 loadbang;
#X msg 479 144 60;
#X obj 21 141 bng 15 250 50 0 empty empty empty 0 -6 0 8 -262144 -1
-1;
#X obj 342 364 select 1 2 3 4 5;
#X msg 716 144 3;
#X obj 293 35 random 50000;
#X msg 440 229 1;
#X msg 405 273 747;
#X msg 448 196 59774;
#X msg 358 268 60;
#X msg 523 198 1;
#X msg 488 242 747;
#X msg 441 237 60;
#X msg 544 240 1267;
#X msg 680 191 60;
#X msg 783 194 61002;
#X msg 727 196 947;
#X msg 737 168 1;
#X msg 139 395 47;
#X msg 195 393 45;
#X msg 129 462 59;
#X msg 260 459 52;
#X msg 202 462 54;
#X msg 761 144 3014;
#X msg 525 144 100;
#X msg 667 144 944;
#X msg 569 144 10000;
#X msg 254 362 1;
#X obj 504 523 / 8;
#X obj 503 474 * 9;
#X obj 877 528 / 8;
#X obj 570 477 * 5;
#X obj 568 526 / 4;
#X obj 658 474 * 4;
#X obj 659 523 / 3;
#X obj 749 468 * 3;
#X obj 750 517 / 2;
#X obj 876 478 * 15;
#X floatatom 735 549 5 0 0 0 - - -;
#X obj 539 494 * 6;
#X obj 536 513 / 5;
#X obj 786 475 * 8;
#X obj 786 498 / 5;
#X floatatom 483 588 5 0 0 0 - - -;
#X floatatom 500 647 8 0 0 0 - - -;
#X msg 515 360 1;
#X obj 501 621 ftom;
#X msg 574 454 1;
#X msg 491 435 1;
#X msg 465 475 1;
#X msg 721 582 264;
#X msg 416 514 1;
#X msg 650 431 1;
#X msg 705 456 1;
#X msg 736 427 1;
#X msg 785 454 1;
#X msg 821 424 1;
#X msg 847 452 1;
#X msg 892 436 1;
#X msg 936 477 2;
#X floatatom 692 636 8 0 0 0 - - -;
#X msg 782 580 297;
#X msg 195 604 72;
#X msg 226 604 67;
#X msg 279 602 69;
#X msg 333 600 65;
#X obj 534 391 bng 15 250 50 0 empty empty empty 0 -6 0 8 -262144 -1
-1;
#X obj 566 432 bng 15 250 50 0 empty empty empty 0 -6 0 8 -262144 -1
-1;
#X obj 701 424 bng 15 250 50 0 empty empty empty 0 -6 0 8 -262144 -1
-1;
#X obj 684 390 delay 60;
#X obj 551 408 delay 30;
#X msg 589 352 2;
#X msg 541 472 1;
#X obj 989 371 * 25;
#X obj 993 400 / 16;
#X msg 994 333 1;
#X text 261 769 amp sustain level (%);
#X obj 474 833 / 8;
#X obj 473 784 * 9;
#X obj 847 838 / 8;
#X obj 540 787 * 5;
#X obj 538 836 / 4;
#X obj 628 784 * 4;
#X obj 629 833 / 3;
#X obj 719 778 * 3;
#X obj 720 827 / 2;
#X obj 787 771 * 5;
#X obj 788 820 / 3;
#X obj 846 788 * 15;
#X floatatom 705 859 5 0 0 0 - - -;
#X obj 444 810 * 16;
#X obj 432 831 / 15;
#X obj 509 804 * 6;
#X obj 506 823 / 5;
#X obj 675 790 * 7;
#X obj 675 812 / 5;
#X obj 756 785 * 8;
#X obj 756 808 / 5;
#X obj 813 787 * 16;
#X obj 819 809 / 9;
#X floatatom 453 898 5 0 0 0 - - -;
#X floatatom 416 616 5 0 0 0 - - -;
#X msg 485 670 1;
#X obj 585 941 ftom;
#X msg 544 764 1;
#X msg 461 745 1;
#X msg 435 785 1;
#X msg 691 892 264;
#X msg 386 824 1;
#X msg 620 741 1;
#X msg 675 766 1;
#X msg 706 737 1;
#X msg 755 764 1;
#X msg 791 734 1;
#X msg 817 762 1;
#X msg 862 746 1;
#X msg 906 787 2;
#X obj 585 901 * 264;
#X floatatom 662 946 5 0 0 0 - - -;
#X msg 752 890 297;
#X msg 746 932 528;
#X msg 806 936 396;
#X msg 848 938 440;
#X msg 891 938 352;
#X obj 504 701 bng 15 250 50 0 empty empty empty 0 -6 0 8 -262144 -1
-1;
#X obj 536 742 bng 15 250 50 0 empty empty empty 0 -6 0 8 -262144 -1
-1;
#X obj 671 734 bng 15 250 50 0 empty empty empty 0 -6 0 8 -262144 -1
-1;
#X obj 654 700 delay 60;
#X obj 521 718 delay 30;
#X msg 559 662 2;
#X msg 511 782 1;
#X obj 959 807 * 25;
#X obj 963 836 / 16;
#X msg 964 769 1;
#X obj 871 349 tgl 15 0 empty empty empty 0 -6 0 8 -262144 -1 -1 0
1;
#X obj 571 923 / 4;
#X msg 1041 341 1;
#X obj 1036 379 * 10;
#X obj 1040 408 / 9;
#X msg 1041 443 1;
#X obj 1036 481 * 32;
#X obj 1040 510 / 27;
#X msg 169 512 60;
#X msg 244 416 1;
#X obj 125 557 mtof;
#X floatatom 128 607 5 0 0 0 - - -;
#X msg 235 506 64;
#X msg 304 507 67;
#X msg 621 146 1;
#X obj 587 576 * 261.626;
#X obj 474 500 * 135;
#X obj 705 480 * 45;
#X obj 705 502 / 32;
#X obj 817 461 * 27;
#X obj 818 510 / 16;
#X obj 843 477 * 9;
#X obj 849 499 / 5;
#X obj 462 521 / 128;
#X msg 780 687 261.626;
#X msg 782 661 523.252;
#X msg 858 664 392.439;
#X msg 906 635 441.494;
#X msg 973 630 348.835;
#X obj 873 381 metro 88;
#X obj 563 612 / 2;
#X obj 424 12 random 3;
#X obj 423 41 + 1;
#X obj 83 79 random 6;
#X obj 106 115 + 90;
#X obj 178 2 inlet;
#X obj 248 17 bng 15 250 50 0 empty empty empty 17 7 0 10 -262144 -1
-1;
#X obj 223 59 pack 0 50;
#X msg 234 36 0;
#X floatatom 798 84 5 0 0 0 - - -;
#X text 705 0 keyboard input;
#X obj 828 19 key;
#X obj 497 295 select 97 115 100 102 103 102 118;
#X obj 37 427 outlet;
#X text 83 135 tone vel length sample# start attack decay;
#X obj 820 56 spigot;
#X obj 788 19 tgl 15 0 empty empty empty 17 7 0 10 -262144 -1 -1 0
1;
#X connect 0 0 1 0;
#X connect 0 0 12 0;
#X connect 1 0 9 0;
#X connect 3 0 9 1;
#X connect 4 0 9 2;
#X connect 5 0 9 3;
#X connect 6 0 9 4;
#X connect 7 0 9 5;
#X connect 8 0 9 6;
#X connect 9 0 187 0;
#X connect 10 0 11 0;
#X connect 10 0 34 0;
#X connect 10 0 36 0;
#X connect 10 0 158 0;
#X connect 10 0 35 0;
#X connect 10 0 14 0;
#X connect 10 0 33 0;
#X connect 11 0 1 0;
#X connect 12 0 3 0;
#X connect 12 0 4 0;
#X connect 12 0 5 0;
#X connect 12 0 6 0;
#X connect 12 0 7 0;
#X connect 12 0 8 0;
#X connect 12 0 177 0;
#X connect 13 0 30 0;
#X connect 13 1 32 0;
#X connect 13 2 31 0;
#X connect 14 0 7 0;
#X connect 15 0 6 0;
#X connect 16 0 17 0;
#X connect 16 0 18 0;
#X connect 16 0 19 0;
#X connect 17 0 4 0;
#X connect 18 0 6 0;
#X connect 19 0 1 0;
#X connect 20 0 21 0;
#X connect 20 0 23 0;
#X connect 20 0 22 0;
#X connect 21 0 4 0;
#X connect 22 0 1 0;
#X connect 23 0 6 0;
#X connect 24 0 1 0;
#X connect 25 0 6 0;
#X connect 26 0 4 0;
#X connect 27 0 26 0;
#X connect 27 0 25 0;
#X connect 27 0 24 0;
#X connect 28 0 1 0;
#X connect 29 0 1 0;
#X connect 30 0 1 0;
#X connect 31 0 1 0;
#X connect 32 0 1 0;
#X connect 33 0 8 0;
#X connect 34 0 3 0;
#X connect 35 0 6 0;
#X connect 36 0 4 0;
#X connect 37 0 30 0;
#X connect 37 0 32 0;
#X connect 37 0 31 0;
#X connect 38 0 159 0;
#X connect 39 0 38 0;
#X connect 40 0 159 0;
#X connect 41 0 42 0;
#X connect 42 0 159 0;
#X connect 43 0 44 0;
#X connect 44 0 159 0;
#X connect 45 0 46 0;
#X connect 46 0 159 0;
#X connect 47 0 40 0;
#X connect 49 0 50 0;
#X connect 50 0 159 0;
#X connect 51 0 52 0;
#X connect 52 0 159 0;
#X connect 54 0 1 0;
#X connect 55 0 61 0;
#X connect 55 0 76 0;
#X connect 55 0 79 0;
#X connect 56 0 54 0;
#X connect 57 0 41 0;
#X connect 58 0 39 0;
#X connect 59 0 160 0;
#X connect 60 0 159 1;
#X connect 61 0 159 0;
#X connect 62 0 43 0;
#X connect 63 0 161 0;
#X connect 64 0 45 0;
#X connect 65 0 51 0;
#X connect 66 0 163 0;
#X connect 67 0 165 0;
#X connect 68 0 47 0;
#X connect 69 0 159 0;
#X connect 71 0 159 1;
#X connect 72 0 1 0;
#X connect 73 0 1 0;
#X connect 74 0 1 0;
#X connect 75 0 1 0;
#X connect 76 0 80 0;
#X connect 77 0 57 0;
#X connect 78 0 64 0;
#X connect 79 0 78 0;
#X connect 80 0 77 0;
#X connect 81 0 61 0;
#X connect 81 0 82 0;
#X connect 81 0 45 0;
#X connect 82 0 49 0;
#X connect 83 0 84 0;
#X connect 84 0 159 0;
#X connect 85 0 83 0;
#X connect 87 0 127 0;
#X connect 88 0 87 0;
#X connect 89 0 127 0;
#X connect 90 0 91 0;
#X connect 91 0 127 0;
#X connect 92 0 93 0;
#X connect 93 0 127 0;
#X connect 94 0 95 0;
#X connect 95 0 127 0;
#X connect 96 0 97 0;
#X connect 97 0 127 0;
#X connect 98 0 89 0;
#X connect 100 0 101 0;
#X connect 101 0 110 0;
#X connect 101 0 127 0;
#X connect 102 0 103 0;
#X connect 103 0 127 0;
#X connect 104 0 105 0;
#X connect 105 0 127 0;
#X connect 106 0 107 0;
#X connect 107 0 127 0;
#X connect 108 0 109 0;
#X connect 109 0 127 0;
#X connect 111 0 1 0;
#X connect 112 0 118 0;
#X connect 112 0 134 0;
#X connect 112 0 137 0;
#X connect 113 0 111 0;
#X connect 114 0 90 0;
#X connect 115 0 88 0;
#X connect 116 0 100 0;
#X connect 117 0 127 1;
#X connect 118 0 127 0;
#X connect 119 0 92 0;
#X connect 120 0 104 0;
#X connect 121 0 94 0;
#X connect 122 0 106 0;
#X connect 123 0 96 0;
#X connect 124 0 108 0;
#X connect 125 0 98 0;
#X connect 126 0 127 0;
#X connect 127 0 128 0;
#X connect 127 0 145 0;
#X connect 129 0 127 1;
#X connect 130 0 127 1;
#X connect 131 0 127 1;
#X connect 132 0 127 1;
#X connect 133 0 127 1;
#X connect 134 0 138 0;
#X connect 135 0 114 0;
#X connect 136 0 121 0;
#X connect 137 0 136 0;
#X connect 138 0 135 0;
#X connect 139 0 118 0;
#X connect 139 0 140 0;
#X connect 139 0 94 0;
#X connect 140 0 102 0;
#X connect 141 0 142 0;
#X connect 142 0 127 0;
#X connect 143 0 141 0;
#X connect 144 0 173 0;
#X connect 145 0 113 0;
#X connect 146 0 147 0;
#X connect 147 0 148 0;
#X connect 148 0 159 0;
#X connect 149 0 150 0;
#X connect 150 0 151 0;
#X connect 151 0 159 0;
#X connect 152 0 1 0;
#X connect 152 0 154 0;
#X connect 153 0 152 0;
#X connect 153 0 156 0;
#X connect 153 0 157 0;
#X connect 154 0 155 0;
#X connect 156 0 1 0;
#X connect 157 0 1 0;
#X connect 158 0 5 0;
#X connect 159 0 70 0;
#X connect 159 0 174 0;
#X connect 160 0 167 0;
#X connect 161 0 162 0;
#X connect 162 0 159 0;
#X connect 163 0 164 0;
#X connect 164 0 159 0;
#X connect 165 0 166 0;
#X connect 166 0 159 0;
#X connect 167 0 53 0;
#X connect 167 0 159 0;
#X connect 168 0 159 1;
#X connect 169 0 159 1;
#X connect 170 0 159 1;
#X connect 171 0 159 1;
#X connect 172 0 159 1;
#X connect 173 0 55 0;
#X connect 174 0 56 0;
#X connect 175 0 176 0;
#X connect 177 0 178 0;
#X connect 178 0 3 0;
#X connect 179 0 180 0;
#X connect 180 0 182 0;
#X connect 181 0 4 0;
#X connect 182 0 181 0;
#X connect 183 0 186 0;
#X connect 185 0 189 0;
#X connect 186 0 61 0;
#X connect 186 1 59 0;
#X connect 186 2 58 0;
#X connect 186 3 82 0;
#X connect 189 0 183 0;
#X connect 190 0 189 1;
#X restore 45 27 pd PIANO2;
#N canvas 88 9 1192 844 keys 0;
#X obj 567 -149 key;
#X floatatom 579 -83 5 0 0 0 - - -;
#X obj 694 -171 keyup;
#X floatatom 708 -77 5 0 0 0 - - -;
#X obj 658 453 * 261.626;
#X obj 174 628 outlet;
#X floatatom 657 523 8 0 0 0 - - -;
#X obj 658 497 ftom;
#X obj 658 474 / 2;
#X msg 637 25 7;
#X obj 637 47 / 4;
#X msg 736 117 7;
#X msg 689 79 7;
#X obj 535 147 / 4;
#X msg 586 76 3;
#X obj 586 98 / 2;
#X obj 692 107 / 5;
#X msg 534 125 5;
#X msg 629 129 6;
#X obj 634 149 / 5;
#X obj 737 140 / 6;
#X msg 496 180 1;
#X msg 575 182 1;
#X msg 691 179 1;
#X msg 769 181 1;
#X msg 537 222 8;
#X obj 538 245 / 5;
#X msg 626 224 5;
#X obj 627 245 / 3;
#X msg 729 218 12;
#X obj 727 240 / 7;
#X msg 577 273 4;
#X obj 578 296 / 3;
#X msg 673 269 10;
#X obj 672 296 / 7;
#X msg 615 325 8;
#X obj 616 350 / 7;
#X obj 551 -15 select 54 116 103 98 114 102 118;
#X obj 90 -110 key;
#X obj 190 -31 keyup;
#X floatatom 117 -74 5 0 0 0 - - -;
#X floatatom 238 7 5 0 0 0 - - -;
#X obj 90 253 bng 15 250 50 0 empty empty empty 17 7 0 10 -262144 -1
-1;
#X msg 90 301 1;
#X obj 190 70 bng 15 250 50 0 empty empty empty 17 7 0 10 -262144 -1
-1;
#X text 50 292 comment;
#X obj 209 174 line;
#X floatatom 209 201 5 0 0 0 - - -;
#X obj 209 234 select 0 1000;
#X obj 163 456 spigot;
#X floatatom 169 591 5 0 0 0 - - -;
#X msg 208 480 0;
#X msg 208 269 0;
#X msg 217 332 1;
#X msg 308 268 0;
#X msg 313 308 stop;
#X msg 201 124 1000 100;
#X floatatom 219 389 5 0 0 0 - - -;
#X obj 399 572 makenote 64 250;
#X obj 401 598 pack;
#X obj 401 622 s syn-midinoteon;
#X connect 0 0 1 0;
#X connect 1 0 37 0;
#X connect 2 0 3 0;
#X connect 4 0 8 0;
#X connect 6 0 58 0;
#X connect 7 0 6 0;
#X connect 8 0 7 0;
#X connect 9 0 10 0;
#X connect 10 0 4 0;
#X connect 11 0 20 0;
#X connect 12 0 16 0;
#X connect 13 0 4 0;
#X connect 14 0 15 0;
#X connect 15 0 4 0;
#X connect 16 0 4 0;
#X connect 17 0 13 0;
#X connect 18 0 19 0;
#X connect 19 0 4 0;
#X connect 20 0 4 0;
#X connect 21 0 4 0;
#X connect 22 0 4 0;
#X connect 23 0 4 0;
#X connect 24 0 4 0;
#X connect 25 0 26 0;
#X connect 26 0 4 0;
#X connect 27 0 28 0;
#X connect 28 0 4 0;
#X connect 29 0 30 0;
#X connect 30 0 4 0;
#X connect 31 0 32 0;
#X connect 32 0 4 0;
#X connect 33 0 34 0;
#X connect 34 0 4 0;
#X connect 35 0 36 0;
#X connect 36 0 4 0;
#X connect 37 0 21 0;
#X connect 37 1 22 0;
#X connect 37 2 23 0;
#X connect 37 3 24 0;
#X connect 37 4 17 0;
#X connect 37 5 18 0;
#X connect 37 6 11 0;
#X connect 38 0 40 0;
#X connect 38 0 42 0;
#X connect 39 0 44 0;
#X connect 39 0 41 0;
#X connect 42 0 43 0;
#X connect 43 0 49 0;
#X connect 44 0 56 0;
#X connect 46 0 47 0;
#X connect 47 0 48 0;
#X connect 48 1 52 0;
#X connect 48 1 54 0;
#X connect 49 0 50 0;
#X connect 49 0 51 0;
#X connect 50 0 5 0;
#X connect 51 0 57 0;
#X connect 52 0 50 0;
#X connect 52 0 53 0;
#X connect 53 0 57 0;
#X connect 54 0 55 0;
#X connect 54 0 46 0;
#X connect 55 0 46 0;
#X connect 56 0 46 0;
#X connect 57 0 49 1;
#X connect 58 0 59 0;
#X connect 58 1 59 1;
#X connect 59 0 60 0;
#X restore 417 -238 pd keys;
#N canvas 45 172 1180 864 tuning 0;
#X floatatom 297 169 5 0 0 0 - - -;
#X obj 121 378 / 8;
#X obj 120 329 * 9;
#X obj 494 383 / 8;
#X obj 187 332 * 5;
#X obj 185 381 / 4;
#X obj 275 329 * 4;
#X obj 276 378 / 3;
#X obj 366 323 * 3;
#X obj 367 372 / 2;
#X obj 493 333 * 15;
#X floatatom 352 404 5 0 0 0 - - -;
#X obj 156 349 * 6;
#X obj 153 368 / 5;
#X obj 403 330 * 8;
#X obj 403 353 / 5;
#X floatatom 100 443 5 0 0 0 - - -;
#X msg 132 215 1;
#X msg 191 309 1;
#X msg 108 290 1;
#X msg 82 330 1;
#X msg 338 437 264;
#X msg 33 369 1;
#X msg 267 286 1;
#X msg 322 311 1;
#X msg 353 282 1;
#X msg 402 309 1;
#X msg 438 279 1;
#X msg 464 307 1;
#X msg 509 291 1;
#X msg 553 332 2;
#X msg 399 435 297;
#X obj 151 246 bng 15 250 50 0 empty empty empty 0 -6 0 8 -262144 -1
-1;
#X obj 183 287 bng 15 250 50 0 empty empty empty 0 -6 0 8 -262144 -1
-1;
#X obj 318 279 bng 15 250 50 0 empty empty empty 0 -6 0 8 -262144 -1
-1;
#X obj 301 245 delay 60;
#X obj 168 263 delay 30;
#X msg 206 207 2;
#X msg 158 327 1;
#X obj 204 431 * 261.626;
#X obj 91 355 * 135;
#X obj 322 335 * 45;
#X obj 322 357 / 32;
#X obj 434 316 * 27;
#X obj 435 365 / 16;
#X obj 460 332 * 9;
#X obj 466 354 / 5;
#X obj 79 376 / 128;
#X obj 414 203 metro 88;
#X obj 128 621 outlet;
#X floatatom 89 515 8 0 0 0 - - -;
#X obj 90 489 ftom;
#X obj 152 480 / 2;
#X obj 106 103 select 97 115 100 102 103 104 106;
#X obj 103 10 inlet;
#X connect 1 0 39 0;
#X connect 2 0 1 0;
#X connect 3 0 39 0;
#X connect 4 0 5 0;
#X connect 5 0 39 0;
#X connect 6 0 7 0;
#X connect 7 0 39 0;
#X connect 8 0 9 0;
#X connect 9 0 39 0;
#X connect 10 0 3 0;
#X connect 12 0 13 0;
#X connect 13 0 39 0;
#X connect 14 0 15 0;
#X connect 15 0 39 0;
#X connect 17 0 22 0;
#X connect 17 0 32 0;
#X connect 17 0 35 0;
#X connect 18 0 4 0;
#X connect 19 0 2 0;
#X connect 20 0 40 0;
#X connect 21 0 39 1;
#X connect 22 0 39 0;
#X connect 23 0 6 0;
#X connect 24 0 41 0;
#X connect 25 0 8 0;
#X connect 26 0 14 0;
#X connect 27 0 43 0;
#X connect 28 0 45 0;
#X connect 29 0 10 0;
#X connect 30 0 39 0;
#X connect 31 0 39 1;
#X connect 32 0 36 0;
#X connect 33 0 18 0;
#X connect 34 0 25 0;
#X connect 35 0 34 0;
#X connect 36 0 33 0;
#X connect 37 0 22 0;
#X connect 37 0 38 0;
#X connect 37 0 8 0;
#X connect 38 0 12 0;
#X connect 39 0 52 0;
#X connect 40 0 47 0;
#X connect 41 0 42 0;
#X connect 42 0 39 0;
#X connect 43 0 44 0;
#X connect 44 0 39 0;
#X connect 45 0 46 0;
#X connect 46 0 39 0;
#X connect 47 0 16 0;
#X connect 47 0 39 0;
#X connect 48 0 17 0;
#X connect 50 0 49 0;
#X connect 51 0 50 0;
#X connect 52 0 51 0;
#X connect 53 0 22 0;
#X connect 53 1 19 0;
#X connect 53 2 18 0;
#X connect 53 3 23 0;
#X connect 53 4 25 0;
#X connect 53 5 26 0;
#X connect 53 6 28 0;
#X connect 54 0 53 0;
#X restore 425 -190 pd tuning;
#N canvas 3 29 877 680 bsampler 0;
#N canvas 374 33 863 692 sampvoice 0;
#X obj 288 486 *~;
#X obj 189 619 outlet~;
#X obj 107 467 makefilename sample%d;
#X msg 107 490 set \$1;
#X obj 107 513 tabread4~ sample1;
#X obj 370 429 dbtorms;
#X obj 370 406 unpack;
#X obj 370 452 sqrt;
#X obj 370 475 sqrt;
#X obj 370 498 line~;
#X obj 348 569 *~;
#X obj 370 521 *~;
#X obj 370 544 *~;
#X msg 211 52 bang;
#X obj 211 82 delay 5;
#X obj 436 194 f;
#X obj 377 171 f;
#X obj 319 171 f;
#X obj 288 171 f;
#X obj 257 171 f;
#X obj 166 169 f;
#X obj 166 192 mtof;
#X obj 166 215 / 261.62;
#X obj 166 238 * 4.41e+008;
#X obj 409 171 delay;
#X obj 257 313 pack 0 0 0 0 0;
#X obj 211 105 t b b b;
#X obj 319 217 + 1;
#X obj 319 194 * 44.1;
#X msg 58 409 0 5;
#X msg 299 347 1 5;
#X msg 335 347 0 \, \$1 \$2;
#X msg 131 409 \$3 \, \$4 1e+007;
#X msg 263 347 \$5;
#X msg 415 347 0 \$1;
#X obj 300 74 inlet;
#X obj 187 563 inlet~;
#X obj 187 589 +~;
#X text 515 77 ARGUMENTS FOR NOTES:;
#X text 515 99 pitch in halftones;
#X text 515 123 amplitude (dB);
#X text 515 171 sample number;
#X text 515 147 duration (msec);
#X text 515 195 start location (msec);
#X text 515 219 rise time (msec);
#X text 515 243 decay time (msec);
#X obj 48 467 vline~;
#X obj 311 406 vline~;
#X obj 199 270 -;
#X obj 151 268 +;
#X obj 28 265 select 0 1;
#X obj 299 105 unpack 0 0 0 0 0 0 0 0;
#X text 518 274 forward ( 0 ) reverse ( 1 );
#X obj 118 310 spigot;
#X obj 195 308 spigot;
#X msg 22 296 1;
#X msg 22 322 0;
#X msg 65 293 1;
#X msg 57 323 0;
#X obj 115 351 bng 15 250 50 0 empty empty empty 0 -6 0 8 -262144 -1
-1;
#X obj 167 349 bng 15 250 50 0 empty empty empty 0 -6 0 8 -262144 -1
-1;
#X connect 0 0 10 0;
#X connect 2 0 3 0;
#X connect 3 0 4 0;
#X connect 4 0 0 0;
#X connect 5 0 7 0;
#X connect 6 0 5 0;
#X connect 6 1 9 1;
#X connect 7 0 8 0;
#X connect 8 0 9 0;
#X connect 9 0 11 0;
#X connect 9 0 11 1;
#X connect 10 0 37 1;
#X connect 11 0 12 0;
#X connect 11 0 12 1;
#X connect 12 0 10 1;
#X connect 13 0 14 0;
#X connect 13 0 29 0;
#X connect 14 0 26 0;
#X connect 15 0 34 0;
#X connect 16 0 25 1;
#X connect 17 0 28 0;
#X connect 18 0 25 4;
#X connect 19 0 25 0;
#X connect 20 0 21 0;
#X connect 21 0 22 0;
#X connect 22 0 23 0;
#X connect 23 0 49 0;
#X connect 23 0 48 1;
#X connect 24 0 15 0;
#X connect 25 0 30 0;
#X connect 25 0 31 0;
#X connect 25 0 32 0;
#X connect 25 0 33 0;
#X connect 26 0 19 0;
#X connect 26 1 20 0;
#X connect 26 2 16 0;
#X connect 26 2 17 0;
#X connect 26 2 18 0;
#X connect 26 2 24 0;
#X connect 27 0 25 2;
#X connect 27 0 49 1;
#X connect 27 0 48 0;
#X connect 28 0 27 0;
#X connect 29 0 47 0;
#X connect 30 0 47 0;
#X connect 31 0 6 0;
#X connect 32 0 46 0;
#X connect 33 0 2 0;
#X connect 34 0 6 0;
#X connect 35 0 51 0;
#X connect 36 0 37 0;
#X connect 37 0 1 0;
#X connect 46 0 4 0;
#X connect 47 0 0 1;
#X connect 48 0 54 0;
#X connect 49 0 53 0;
#X connect 50 0 55 0;
#X connect 50 0 56 0;
#X connect 50 1 57 0;
#X connect 50 1 58 0;
#X connect 51 0 20 1;
#X connect 51 0 13 0;
#X connect 51 1 19 1;
#X connect 51 2 24 1;
#X connect 51 3 18 1;
#X connect 51 4 17 1;
#X connect 51 5 16 1;
#X connect 51 6 15 1;
#X connect 51 7 50 0;
#X connect 53 0 25 3;
#X connect 53 0 59 0;
#X connect 54 0 25 3;
#X connect 54 0 60 0;
#X connect 55 0 53 1;
#X connect 56 0 54 1;
#X connect 57 0 54 1;
#X connect 58 0 53 1;
#X restore 18 337 pd sampvoice;
#X obj 108 69 t b f;
#X obj 48 102 f;
#X obj 84 102 + 1;
#X obj 56 139 mod 1e+006;
#X obj 48 168 makenote 64;
#X obj 48 196 poly 8 1;
#X obj 48 223 stripnote;
#X obj 121 293 route 1 2 3 4 5 6 7 8;
#X obj 136 2 inlet;
#X obj 27 582 outlet~;
#X obj 135 37 unpack 0 0 0 0 0 0 0 0;
#X obj 121 265 pack 0 0 0 0 0 0 0 0 0;
#X obj 310 592 bng 15 250 50 0 empty empty empty 0 -6 0 8 -262144 -1
-1;
#X obj 304 348 bng 15 250 50 0 empty empty empty 0 -6 0 8 -262144 -1
-1;
#X obj 306 384 bng 15 250 50 0 empty empty empty 0 -6 0 8 -262144 -1
-1;
#X obj 302 411 bng 15 250 50 0 empty empty empty 0 -6 0 8 -262144 -1
-1;
#X obj 303 440 bng 15 250 50 0 empty empty empty 0 -6 0 8 -262144 -1
-1;
#X obj 304 475 bng 15 250 50 0 empty empty empty 0 -6 0 8 -262144 -1
-1;
#X obj 304 506 bng 15 250 50 0 empty empty empty 0 -6 0 8 -262144 -1
-1;
#X obj 303 536 bng 15 250 50 0 empty empty empty 0 -6 0 8 -262144 -1
-1;
#X obj 305 561 bng 15 250 50 0 empty empty empty 0 -6 0 8 -262144 -1
-1;
#N canvas 374 33 865 694 sampvoice 0;
#X obj 288 486 *~;
#X obj 189 619 outlet~;
#X obj 107 467 makefilename sample%d;
#X msg 107 490 set \$1;
#X obj 107 513 tabread4~ sample1;
#X obj 370 429 dbtorms;
#X obj 370 406 unpack;
#X obj 370 452 sqrt;
#X obj 370 475 sqrt;
#X obj 370 498 line~;
#X obj 348 569 *~;
#X obj 370 521 *~;
#X obj 370 544 *~;
#X msg 211 52 bang;
#X obj 211 82 delay 5;
#X obj 436 194 f;
#X obj 377 171 f;
#X obj 319 171 f;
#X obj 288 171 f;
#X obj 257 171 f;
#X obj 166 169 f;
#X obj 166 192 mtof;
#X obj 166 215 / 261.62;
#X obj 166 238 * 4.41e+008;
#X obj 409 171 delay;
#X obj 257 313 pack 0 0 0 0 0;
#X obj 211 105 t b b b;
#X obj 319 217 + 1;
#X obj 319 194 * 44.1;
#X msg 58 409 0 5;
#X msg 299 347 1 5;
#X msg 335 347 0 \, \$1 \$2;
#X msg 131 409 \$3 \, \$4 1e+007;
#X msg 263 347 \$5;
#X msg 415 347 0 \$1;
#X obj 300 74 inlet;
#X obj 187 563 inlet~;
#X obj 187 589 +~;
#X text 515 77 ARGUMENTS FOR NOTES:;
#X text 515 99 pitch in halftones;
#X text 515 123 amplitude (dB);
#X text 515 171 sample number;
#X text 515 147 duration (msec);
#X text 515 195 start location (msec);
#X text 515 219 rise time (msec);
#X text 515 243 decay time (msec);
#X obj 48 467 vline~;
#X obj 311 406 vline~;
#X obj 199 270 -;
#X obj 151 268 +;
#X obj 28 265 select 0 1;
#X obj 299 105 unpack 0 0 0 0 0 0 0 0;
#X text 518 274 forward ( 0 ) reverse ( 1 );
#X obj 118 310 spigot;
#X obj 195 308 spigot;
#X msg 22 296 1;
#X msg 22 322 0;
#X msg 65 293 1;
#X msg 57 323 0;
#X obj 115 351 bng 15 250 50 0 empty empty empty 0 -6 0 8 -262144 -1
-1;
#X obj 167 349 bng 15 250 50 0 empty empty empty 0 -6 0 8 -262144 -1
-1;
#X connect 0 0 10 0;
#X connect 2 0 3 0;
#X connect 3 0 4 0;
#X connect 4 0 0 0;
#X connect 5 0 7 0;
#X connect 6 0 5 0;
#X connect 6 1 9 1;
#X connect 7 0 8 0;
#X connect 8 0 9 0;
#X connect 9 0 11 0;
#X connect 9 0 11 1;
#X connect 10 0 37 1;
#X connect 11 0 12 0;
#X connect 11 0 12 1;
#X connect 12 0 10 1;
#X connect 13 0 14 0;
#X connect 13 0 29 0;
#X connect 14 0 26 0;
#X connect 15 0 34 0;
#X connect 16 0 25 1;
#X connect 17 0 28 0;
#X connect 18 0 25 4;
#X connect 19 0 25 0;
#X connect 20 0 21 0;
#X connect 21 0 22 0;
#X connect 22 0 23 0;
#X connect 23 0 49 0;
#X connect 23 0 48 1;
#X connect 24 0 15 0;
#X connect 25 0 30 0;
#X connect 25 0 31 0;
#X connect 25 0 32 0;
#X connect 25 0 33 0;
#X connect 26 0 19 0;
#X connect 26 1 20 0;
#X connect 26 2 16 0;
#X connect 26 2 17 0;
#X connect 26 2 18 0;
#X connect 26 2 24 0;
#X connect 27 0 25 2;
#X connect 27 0 49 1;
#X connect 27 0 48 0;
#X connect 28 0 27 0;
#X connect 29 0 47 0;
#X connect 30 0 47 0;
#X connect 31 0 6 0;
#X connect 32 0 46 0;
#X connect 33 0 2 0;
#X connect 34 0 6 0;
#X connect 35 0 51 0;
#X connect 36 0 37 0;
#X connect 37 0 1 0;
#X connect 46 0 4 0;
#X connect 47 0 0 1;
#X connect 48 0 54 0;
#X connect 49 0 53 0;
#X connect 50 0 55 0;
#X connect 50 0 56 0;
#X connect 50 1 57 0;
#X connect 50 1 58 0;
#X connect 51 0 20 1;
#X connect 51 0 13 0;
#X connect 51 1 19 1;
#X connect 51 2 24 1;
#X connect 51 3 18 1;
#X connect 51 4 17 1;
#X connect 51 5 16 1;
#X connect 51 6 15 1;
#X connect 51 7 50 0;
#X connect 53 0 25 3;
#X connect 53 0 59 0;
#X connect 54 0 25 3;
#X connect 54 0 60 0;
#X connect 55 0 53 1;
#X connect 56 0 54 1;
#X connect 57 0 54 1;
#X connect 58 0 53 1;
#X restore 18 368 pd sampvoice;
#N canvas 374 33 865 694 sampvoice 0;
#X obj 288 486 *~;
#X obj 189 619 outlet~;
#X obj 107 467 makefilename sample%d;
#X msg 107 490 set \$1;
#X obj 107 513 tabread4~ sample1;
#X obj 370 429 dbtorms;
#X obj 370 406 unpack;
#X obj 370 452 sqrt;
#X obj 370 475 sqrt;
#X obj 370 498 line~;
#X obj 348 569 *~;
#X obj 370 521 *~;
#X obj 370 544 *~;
#X msg 211 52 bang;
#X obj 211 82 delay 5;
#X obj 436 194 f;
#X obj 377 171 f;
#X obj 319 171 f;
#X obj 288 171 f;
#X obj 257 171 f;
#X obj 166 169 f;
#X obj 166 192 mtof;
#X obj 166 215 / 261.62;
#X obj 166 238 * 4.41e+008;
#X obj 409 171 delay;
#X obj 257 313 pack 0 0 0 0 0;
#X obj 211 105 t b b b;
#X obj 319 217 + 1;
#X obj 319 194 * 44.1;
#X msg 58 409 0 5;
#X msg 299 347 1 5;
#X msg 335 347 0 \, \$1 \$2;
#X msg 131 409 \$3 \, \$4 1e+007;
#X msg 263 347 \$5;
#X msg 415 347 0 \$1;
#X obj 300 74 inlet;
#X obj 187 563 inlet~;
#X obj 187 589 +~;
#X text 515 77 ARGUMENTS FOR NOTES:;
#X text 515 99 pitch in halftones;
#X text 515 123 amplitude (dB);
#X text 515 171 sample number;
#X text 515 147 duration (msec);
#X text 515 195 start location (msec);
#X text 515 219 rise time (msec);
#X text 515 243 decay time (msec);
#X obj 48 467 vline~;
#X obj 311 406 vline~;
#X obj 199 270 -;
#X obj 151 268 +;
#X obj 28 265 select 0 1;
#X obj 299 105 unpack 0 0 0 0 0 0 0 0;
#X text 518 274 forward ( 0 ) reverse ( 1 );
#X obj 118 310 spigot;
#X obj 195 308 spigot;
#X msg 22 296 1;
#X msg 22 322 0;
#X msg 65 293 1;
#X msg 57 323 0;
#X obj 115 351 bng 15 250 50 0 empty empty empty 0 -6 0 8 -262144 -1
-1;
#X obj 167 349 bng 15 250 50 0 empty empty empty 0 -6 0 8 -262144 -1
-1;
#X connect 0 0 10 0;
#X connect 2 0 3 0;
#X connect 3 0 4 0;
#X connect 4 0 0 0;
#X connect 5 0 7 0;
#X connect 6 0 5 0;
#X connect 6 1 9 1;
#X connect 7 0 8 0;
#X connect 8 0 9 0;
#X connect 9 0 11 0;
#X connect 9 0 11 1;
#X connect 10 0 37 1;
#X connect 11 0 12 0;
#X connect 11 0 12 1;
#X connect 12 0 10 1;
#X connect 13 0 14 0;
#X connect 13 0 29 0;
#X connect 14 0 26 0;
#X connect 15 0 34 0;
#X connect 16 0 25 1;
#X connect 17 0 28 0;
#X connect 18 0 25 4;
#X connect 19 0 25 0;
#X connect 20 0 21 0;
#X connect 21 0 22 0;
#X connect 22 0 23 0;
#X connect 23 0 49 0;
#X connect 23 0 48 1;
#X connect 24 0 15 0;
#X connect 25 0 30 0;
#X connect 25 0 31 0;
#X connect 25 0 32 0;
#X connect 25 0 33 0;
#X connect 26 0 19 0;
#X connect 26 1 20 0;
#X connect 26 2 16 0;
#X connect 26 2 17 0;
#X connect 26 2 18 0;
#X connect 26 2 24 0;
#X connect 27 0 25 2;
#X connect 27 0 49 1;
#X connect 27 0 48 0;
#X connect 28 0 27 0;
#X connect 29 0 47 0;
#X connect 30 0 47 0;
#X connect 31 0 6 0;
#X connect 32 0 46 0;
#X connect 33 0 2 0;
#X connect 34 0 6 0;
#X connect 35 0 51 0;
#X connect 36 0 37 0;
#X connect 37 0 1 0;
#X connect 46 0 4 0;
#X connect 47 0 0 1;
#X connect 48 0 54 0;
#X connect 49 0 53 0;
#X connect 50 0 55 0;
#X connect 50 0 56 0;
#X connect 50 1 57 0;
#X connect 50 1 58 0;
#X connect 51 0 20 1;
#X connect 51 0 13 0;
#X connect 51 1 19 1;
#X connect 51 2 24 1;
#X connect 51 3 18 1;
#X connect 51 4 17 1;
#X connect 51 5 16 1;
#X connect 51 6 15 1;
#X connect 51 7 50 0;
#X connect 53 0 25 3;
#X connect 53 0 59 0;
#X connect 54 0 25 3;
#X connect 54 0 60 0;
#X connect 55 0 53 1;
#X connect 56 0 54 1;
#X connect 57 0 54 1;
#X connect 58 0 53 1;
#X restore 15 395 pd sampvoice;
#N canvas 374 33 865 694 sampvoice 0;
#X obj 288 486 *~;
#X obj 189 619 outlet~;
#X obj 107 467 makefilename sample%d;
#X msg 107 490 set \$1;
#X obj 107 513 tabread4~ sample1;
#X obj 370 429 dbtorms;
#X obj 370 406 unpack;
#X obj 370 452 sqrt;
#X obj 370 475 sqrt;
#X obj 370 498 line~;
#X obj 348 569 *~;
#X obj 370 521 *~;
#X obj 370 544 *~;
#X msg 211 52 bang;
#X obj 211 82 delay 5;
#X obj 436 194 f;
#X obj 377 171 f;
#X obj 319 171 f;
#X obj 288 171 f;
#X obj 257 171 f;
#X obj 166 169 f;
#X obj 166 192 mtof;
#X obj 166 215 / 261.62;
#X obj 166 238 * 4.41e+008;
#X obj 409 171 delay;
#X obj 257 313 pack 0 0 0 0 0;
#X obj 211 105 t b b b;
#X obj 319 217 + 1;
#X obj 319 194 * 44.1;
#X msg 58 409 0 5;
#X msg 299 347 1 5;
#X msg 335 347 0 \, \$1 \$2;
#X msg 131 409 \$3 \, \$4 1e+007;
#X msg 263 347 \$5;
#X msg 415 347 0 \$1;
#X obj 300 74 inlet;
#X obj 187 563 inlet~;
#X obj 187 589 +~;
#X text 515 77 ARGUMENTS FOR NOTES:;
#X text 515 99 pitch in halftones;
#X text 515 123 amplitude (dB);
#X text 515 171 sample number;
#X text 515 147 duration (msec);
#X text 515 195 start location (msec);
#X text 515 219 rise time (msec);
#X text 515 243 decay time (msec);
#X obj 48 467 vline~;
#X obj 311 406 vline~;
#X obj 199 270 -;
#X obj 151 268 +;
#X obj 28 265 select 0 1;
#X obj 299 105 unpack 0 0 0 0 0 0 0 0;
#X text 518 274 forward ( 0 ) reverse ( 1 );
#X obj 118 310 spigot;
#X obj 195 308 spigot;
#X msg 22 296 1;
#X msg 22 322 0;
#X msg 65 293 1;
#X msg 57 323 0;
#X obj 115 351 bng 15 250 50 0 empty empty empty 0 -6 0 8 -262144 -1
-1;
#X obj 167 349 bng 15 250 50 0 empty empty empty 0 -6 0 8 -262144 -1
-1;
#X connect 0 0 10 0;
#X connect 2 0 3 0;
#X connect 3 0 4 0;
#X connect 4 0 0 0;
#X connect 5 0 7 0;
#X connect 6 0 5 0;
#X connect 6 1 9 1;
#X connect 7 0 8 0;
#X connect 8 0 9 0;
#X connect 9 0 11 0;
#X connect 9 0 11 1;
#X connect 10 0 37 1;
#X connect 11 0 12 0;
#X connect 11 0 12 1;
#X connect 12 0 10 1;
#X connect 13 0 14 0;
#X connect 13 0 29 0;
#X connect 14 0 26 0;
#X connect 15 0 34 0;
#X connect 16 0 25 1;
#X connect 17 0 28 0;
#X connect 18 0 25 4;
#X connect 19 0 25 0;
#X connect 20 0 21 0;
#X connect 21 0 22 0;
#X connect 22 0 23 0;
#X connect 23 0 49 0;
#X connect 23 0 48 1;
#X connect 24 0 15 0;
#X connect 25 0 30 0;
#X connect 25 0 31 0;
#X connect 25 0 32 0;
#X connect 25 0 33 0;
#X connect 26 0 19 0;
#X connect 26 1 20 0;
#X connect 26 2 16 0;
#X connect 26 2 17 0;
#X connect 26 2 18 0;
#X connect 26 2 24 0;
#X connect 27 0 25 2;
#X connect 27 0 49 1;
#X connect 27 0 48 0;
#X connect 28 0 27 0;
#X connect 29 0 47 0;
#X connect 30 0 47 0;
#X connect 31 0 6 0;
#X connect 32 0 46 0;
#X connect 33 0 2 0;
#X connect 34 0 6 0;
#X connect 35 0 51 0;
#X connect 36 0 37 0;
#X connect 37 0 1 0;
#X connect 46 0 4 0;
#X connect 47 0 0 1;
#X connect 48 0 54 0;
#X connect 49 0 53 0;
#X connect 50 0 55 0;
#X connect 50 0 56 0;
#X connect 50 1 57 0;
#X connect 50 1 58 0;
#X connect 51 0 20 1;
#X connect 51 0 13 0;
#X connect 51 1 19 1;
#X connect 51 2 24 1;
#X connect 51 3 18 1;
#X connect 51 4 17 1;
#X connect 51 5 16 1;
#X connect 51 6 15 1;
#X connect 51 7 50 0;
#X connect 53 0 25 3;
#X connect 53 0 59 0;
#X connect 54 0 25 3;
#X connect 54 0 60 0;
#X connect 55 0 53 1;
#X connect 56 0 54 1;
#X connect 57 0 54 1;
#X connect 58 0 53 1;
#X restore 15 426 pd sampvoice;
#N canvas 374 33 863 692 sampvoice 0;
#X obj 288 486 *~;
#X obj 189 619 outlet~;
#X obj 107 467 makefilename sample%d;
#X msg 107 490 set \$1;
#X obj 107 513 tabread4~ sample1;
#X obj 370 429 dbtorms;
#X obj 370 406 unpack;
#X obj 370 452 sqrt;
#X obj 370 475 sqrt;
#X obj 370 498 line~;
#X obj 348 569 *~;
#X obj 370 521 *~;
#X obj 370 544 *~;
#X msg 211 52 bang;
#X obj 211 82 delay 5;
#X obj 436 194 f;
#X obj 377 171 f;
#X obj 319 171 f;
#X obj 288 171 f;
#X obj 257 171 f;
#X obj 166 169 f;
#X obj 166 192 mtof;
#X obj 166 215 / 261.62;
#X obj 166 238 * 4.41e+008;
#X obj 409 171 delay;
#X obj 257 313 pack 0 0 0 0 0;
#X obj 211 105 t b b b;
#X obj 319 217 + 1;
#X obj 319 194 * 44.1;
#X msg 58 409 0 5;
#X msg 299 347 1 5;
#X msg 335 347 0 \, \$1 \$2;
#X msg 131 409 \$3 \, \$4 1e+007;
#X msg 263 347 \$5;
#X msg 415 347 0 \$1;
#X obj 300 74 inlet;
#X obj 187 563 inlet~;
#X obj 187 589 +~;
#X text 515 77 ARGUMENTS FOR NOTES:;
#X text 515 99 pitch in halftones;
#X text 515 123 amplitude (dB);
#X text 515 171 sample number;
#X text 515 147 duration (msec);
#X text 515 195 start location (msec);
#X text 515 219 rise time (msec);
#X text 515 243 decay time (msec);
#X obj 48 467 vline~;
#X obj 311 406 vline~;
#X obj 199 270 -;
#X obj 151 268 +;
#X obj 28 265 select 0 1;
#X obj 299 105 unpack 0 0 0 0 0 0 0 0;
#X text 518 274 forward ( 0 ) reverse ( 1 );
#X obj 118 310 spigot;
#X obj 195 308 spigot;
#X msg 22 296 1;
#X msg 22 322 0;
#X msg 65 293 1;
#X msg 57 323 0;
#X obj 115 351 bng 15 250 50 0 empty empty empty 0 -6 0 8 -262144 -1
-1;
#X obj 167 349 bng 15 250 50 0 empty empty empty 0 -6 0 8 -262144 -1
-1;
#X connect 0 0 10 0;
#X connect 2 0 3 0;
#X connect 3 0 4 0;
#X connect 4 0 0 0;
#X connect 5 0 7 0;
#X connect 6 0 5 0;
#X connect 6 1 9 1;
#X connect 7 0 8 0;
#X connect 8 0 9 0;
#X connect 9 0 11 0;
#X connect 9 0 11 1;
#X connect 10 0 37 1;
#X connect 11 0 12 0;
#X connect 11 0 12 1;
#X connect 12 0 10 1;
#X connect 13 0 14 0;
#X connect 13 0 29 0;
#X connect 14 0 26 0;
#X connect 15 0 34 0;
#X connect 16 0 25 1;
#X connect 17 0 28 0;
#X connect 18 0 25 4;
#X connect 19 0 25 0;
#X connect 20 0 21 0;
#X connect 21 0 22 0;
#X connect 22 0 23 0;
#X connect 23 0 49 0;
#X connect 23 0 48 1;
#X connect 24 0 15 0;
#X connect 25 0 30 0;
#X connect 25 0 31 0;
#X connect 25 0 32 0;
#X connect 25 0 33 0;
#X connect 26 0 19 0;
#X connect 26 1 20 0;
#X connect 26 2 16 0;
#X connect 26 2 17 0;
#X connect 26 2 18 0;
#X connect 26 2 24 0;
#X connect 27 0 25 2;
#X connect 27 0 49 1;
#X connect 27 0 48 0;
#X connect 28 0 27 0;
#X connect 29 0 47 0;
#X connect 30 0 47 0;
#X connect 31 0 6 0;
#X connect 32 0 46 0;
#X connect 33 0 2 0;
#X connect 34 0 6 0;
#X connect 35 0 51 0;
#X connect 36 0 37 0;
#X connect 37 0 1 0;
#X connect 46 0 4 0;
#X connect 47 0 0 1;
#X connect 48 0 54 0;
#X connect 49 0 53 0;
#X connect 50 0 55 0;
#X connect 50 0 56 0;
#X connect 50 1 57 0;
#X connect 50 1 58 0;
#X connect 51 0 20 1;
#X connect 51 0 13 0;
#X connect 51 1 19 1;
#X connect 51 2 24 1;
#X connect 51 3 18 1;
#X connect 51 4 17 1;
#X connect 51 5 16 1;
#X connect 51 6 15 1;
#X connect 51 7 50 0;
#X connect 53 0 25 3;
#X connect 53 0 59 0;
#X connect 54 0 25 3;
#X connect 54 0 60 0;
#X connect 55 0 53 1;
#X connect 56 0 54 1;
#X connect 57 0 54 1;
#X connect 58 0 53 1;
#X restore 20 453 pd sampvoice;
#N canvas 374 33 865 694 sampvoice 0;
#X obj 288 486 *~;
#X obj 189 619 outlet~;
#X obj 107 467 makefilename sample%d;
#X msg 107 490 set \$1;
#X obj 107 513 tabread4~ sample1;
#X obj 370 429 dbtorms;
#X obj 370 406 unpack;
#X obj 370 452 sqrt;
#X obj 370 475 sqrt;
#X obj 370 498 line~;
#X obj 348 569 *~;
#X obj 370 521 *~;
#X obj 370 544 *~;
#X msg 211 52 bang;
#X obj 211 82 delay 5;
#X obj 436 194 f;
#X obj 377 171 f;
#X obj 319 171 f;
#X obj 288 171 f;
#X obj 257 171 f;
#X obj 166 169 f;
#X obj 166 192 mtof;
#X obj 166 215 / 261.62;
#X obj 166 238 * 4.41e+008;
#X obj 409 171 delay;
#X obj 257 313 pack 0 0 0 0 0;
#X obj 211 105 t b b b;
#X obj 319 217 + 1;
#X obj 319 194 * 44.1;
#X msg 58 409 0 5;
#X msg 299 347 1 5;
#X msg 335 347 0 \, \$1 \$2;
#X msg 131 409 \$3 \, \$4 1e+007;
#X msg 263 347 \$5;
#X msg 415 347 0 \$1;
#X obj 300 74 inlet;
#X obj 187 563 inlet~;
#X obj 187 589 +~;
#X text 515 77 ARGUMENTS FOR NOTES:;
#X text 515 99 pitch in halftones;
#X text 515 123 amplitude (dB);
#X text 515 171 sample number;
#X text 515 147 duration (msec);
#X text 515 195 start location (msec);
#X text 515 219 rise time (msec);
#X text 515 243 decay time (msec);
#X obj 48 467 vline~;
#X obj 311 406 vline~;
#X obj 199 270 -;
#X obj 151 268 +;
#X obj 28 265 select 0 1;
#X obj 299 105 unpack 0 0 0 0 0 0 0 0;
#X text 518 274 forward ( 0 ) reverse ( 1 );
#X obj 118 310 spigot;
#X obj 195 308 spigot;
#X msg 22 296 1;
#X msg 22 322 0;
#X msg 65 293 1;
#X msg 57 323 0;
#X obj 115 351 bng 15 250 50 0 empty empty empty 0 -6 0 8 -262144 -1
-1;
#X obj 167 349 bng 15 250 50 0 empty empty empty 0 -6 0 8 -262144 -1
-1;
#X connect 0 0 10 0;
#X connect 2 0 3 0;
#X connect 3 0 4 0;
#X connect 4 0 0 0;
#X connect 5 0 7 0;
#X connect 6 0 5 0;
#X connect 6 1 9 1;
#X connect 7 0 8 0;
#X connect 8 0 9 0;
#X connect 9 0 11 0;
#X connect 9 0 11 1;
#X connect 10 0 37 1;
#X connect 11 0 12 0;
#X connect 11 0 12 1;
#X connect 12 0 10 1;
#X connect 13 0 14 0;
#X connect 13 0 29 0;
#X connect 14 0 26 0;
#X connect 15 0 34 0;
#X connect 16 0 25 1;
#X connect 17 0 28 0;
#X connect 18 0 25 4;
#X connect 19 0 25 0;
#X connect 20 0 21 0;
#X connect 21 0 22 0;
#X connect 22 0 23 0;
#X connect 23 0 49 0;
#X connect 23 0 48 1;
#X connect 24 0 15 0;
#X connect 25 0 30 0;
#X connect 25 0 31 0;
#X connect 25 0 32 0;
#X connect 25 0 33 0;
#X connect 26 0 19 0;
#X connect 26 1 20 0;
#X connect 26 2 16 0;
#X connect 26 2 17 0;
#X connect 26 2 18 0;
#X connect 26 2 24 0;
#X connect 27 0 25 2;
#X connect 27 0 49 1;
#X connect 27 0 48 0;
#X connect 28 0 27 0;
#X connect 29 0 47 0;
#X connect 30 0 47 0;
#X connect 31 0 6 0;
#X connect 32 0 46 0;
#X connect 33 0 2 0;
#X connect 34 0 6 0;
#X connect 35 0 51 0;
#X connect 36 0 37 0;
#X connect 37 0 1 0;
#X connect 46 0 4 0;
#X connect 47 0 0 1;
#X connect 48 0 54 0;
#X connect 49 0 53 0;
#X connect 50 0 55 0;
#X connect 50 0 56 0;
#X connect 50 1 57 0;
#X connect 50 1 58 0;
#X connect 51 0 20 1;
#X connect 51 0 13 0;
#X connect 51 1 19 1;
#X connect 51 2 24 1;
#X connect 51 3 18 1;
#X connect 51 4 17 1;
#X connect 51 5 16 1;
#X connect 51 6 15 1;
#X connect 51 7 50 0;
#X connect 53 0 25 3;
#X connect 53 0 59 0;
#X connect 54 0 25 3;
#X connect 54 0 60 0;
#X connect 55 0 53 1;
#X connect 56 0 54 1;
#X connect 57 0 54 1;
#X connect 58 0 53 1;
#X restore 20 484 pd sampvoice;
#N canvas 374 33 865 694 sampvoice 0;
#X obj 288 486 *~;
#X obj 189 619 outlet~;
#X obj 107 467 makefilename sample%d;
#X msg 107 490 set \$1;
#X obj 107 513 tabread4~ sample1;
#X obj 370 429 dbtorms;
#X obj 370 406 unpack;
#X obj 370 452 sqrt;
#X obj 370 475 sqrt;
#X obj 370 498 line~;
#X obj 348 569 *~;
#X obj 370 521 *~;
#X obj 370 544 *~;
#X msg 211 52 bang;
#X obj 211 82 delay 5;
#X obj 436 194 f;
#X obj 377 171 f;
#X obj 319 171 f;
#X obj 288 171 f;
#X obj 257 171 f;
#X obj 166 169 f;
#X obj 166 192 mtof;
#X obj 166 215 / 261.62;
#X obj 166 238 * 4.41e+008;
#X obj 409 171 delay;
#X obj 257 313 pack 0 0 0 0 0;
#X obj 211 105 t b b b;
#X obj 319 217 + 1;
#X obj 319 194 * 44.1;
#X msg 58 409 0 5;
#X msg 299 347 1 5;
#X msg 335 347 0 \, \$1 \$2;
#X msg 131 409 \$3 \, \$4 1e+007;
#X msg 263 347 \$5;
#X msg 415 347 0 \$1;
#X obj 300 74 inlet;
#X obj 187 563 inlet~;
#X obj 187 589 +~;
#X text 515 77 ARGUMENTS FOR NOTES:;
#X text 515 99 pitch in halftones;
#X text 515 123 amplitude (dB);
#X text 515 171 sample number;
#X text 515 147 duration (msec);
#X text 515 195 start location (msec);
#X text 515 219 rise time (msec);
#X text 515 243 decay time (msec);
#X obj 48 467 vline~;
#X obj 311 406 vline~;
#X obj 199 270 -;
#X obj 151 268 +;
#X obj 28 265 select 0 1;
#X obj 299 105 unpack 0 0 0 0 0 0 0 0;
#X text 518 274 forward ( 0 ) reverse ( 1 );
#X obj 118 310 spigot;
#X obj 195 308 spigot;
#X msg 22 296 1;
#X msg 22 322 0;
#X msg 65 293 1;
#X msg 57 323 0;
#X obj 115 351 bng 15 250 50 0 empty empty empty 0 -6 0 8 -262144 -1
-1;
#X obj 167 349 bng 15 250 50 0 empty empty empty 0 -6 0 8 -262144 -1
-1;
#X connect 0 0 10 0;
#X connect 2 0 3 0;
#X connect 3 0 4 0;
#X connect 4 0 0 0;
#X connect 5 0 7 0;
#X connect 6 0 5 0;
#X connect 6 1 9 1;
#X connect 7 0 8 0;
#X connect 8 0 9 0;
#X connect 9 0 11 0;
#X connect 9 0 11 1;
#X connect 10 0 37 1;
#X connect 11 0 12 0;
#X connect 11 0 12 1;
#X connect 12 0 10 1;
#X connect 13 0 14 0;
#X connect 13 0 29 0;
#X connect 14 0 26 0;
#X connect 15 0 34 0;
#X connect 16 0 25 1;
#X connect 17 0 28 0;
#X connect 18 0 25 4;
#X connect 19 0 25 0;
#X connect 20 0 21 0;
#X connect 21 0 22 0;
#X connect 22 0 23 0;
#X connect 23 0 49 0;
#X connect 23 0 48 1;
#X connect 24 0 15 0;
#X connect 25 0 30 0;
#X connect 25 0 31 0;
#X connect 25 0 32 0;
#X connect 25 0 33 0;
#X connect 26 0 19 0;
#X connect 26 1 20 0;
#X connect 26 2 16 0;
#X connect 26 2 17 0;
#X connect 26 2 18 0;
#X connect 26 2 24 0;
#X connect 27 0 25 2;
#X connect 27 0 49 1;
#X connect 27 0 48 0;
#X connect 28 0 27 0;
#X connect 29 0 47 0;
#X connect 30 0 47 0;
#X connect 31 0 6 0;
#X connect 32 0 46 0;
#X connect 33 0 2 0;
#X connect 34 0 6 0;
#X connect 35 0 51 0;
#X connect 36 0 37 0;
#X connect 37 0 1 0;
#X connect 46 0 4 0;
#X connect 47 0 0 1;
#X connect 48 0 54 0;
#X connect 49 0 53 0;
#X connect 50 0 55 0;
#X connect 50 0 56 0;
#X connect 50 1 57 0;
#X connect 50 1 58 0;
#X connect 51 0 20 1;
#X connect 51 0 13 0;
#X connect 51 1 19 1;
#X connect 51 2 24 1;
#X connect 51 3 18 1;
#X connect 51 4 17 1;
#X connect 51 5 16 1;
#X connect 51 6 15 1;
#X connect 51 7 50 0;
#X connect 53 0 25 3;
#X connect 53 0 59 0;
#X connect 54 0 25 3;
#X connect 54 0 60 0;
#X connect 55 0 53 1;
#X connect 56 0 54 1;
#X connect 57 0 54 1;
#X connect 58 0 53 1;
#X restore 17 511 pd sampvoice;
#N canvas 374 33 865 694 sampvoice 0;
#X obj 288 486 *~;
#X obj 189 619 outlet~;
#X obj 107 467 makefilename sample%d;
#X msg 107 490 set \$1;
#X obj 107 513 tabread4~ sample1;
#X obj 370 429 dbtorms;
#X obj 370 406 unpack;
#X obj 370 452 sqrt;
#X obj 370 475 sqrt;
#X obj 370 498 line~;
#X obj 348 569 *~;
#X obj 370 521 *~;
#X obj 370 544 *~;
#X msg 211 52 bang;
#X obj 211 82 delay 5;
#X obj 436 194 f;
#X obj 377 171 f;
#X obj 319 171 f;
#X obj 288 171 f;
#X obj 257 171 f;
#X obj 166 169 f;
#X obj 166 192 mtof;
#X obj 166 215 / 261.62;
#X obj 166 238 * 4.41e+008;
#X obj 409 171 delay;
#X obj 257 313 pack 0 0 0 0 0;
#X obj 211 105 t b b b;
#X obj 319 217 + 1;
#X obj 319 194 * 44.1;
#X msg 58 409 0 5;
#X msg 299 347 1 5;
#X msg 335 347 0 \, \$1 \$2;
#X msg 131 409 \$3 \, \$4 1e+007;
#X msg 263 347 \$5;
#X msg 415 347 0 \$1;
#X obj 300 74 inlet;
#X obj 187 563 inlet~;
#X obj 187 589 +~;
#X text 515 77 ARGUMENTS FOR NOTES:;
#X text 515 99 pitch in halftones;
#X text 515 123 amplitude (dB);
#X text 515 171 sample number;
#X text 515 147 duration (msec);
#X text 515 195 start location (msec);
#X text 515 219 rise time (msec);
#X text 515 243 decay time (msec);
#X obj 48 467 vline~;
#X obj 311 406 vline~;
#X obj 199 270 -;
#X obj 151 268 +;
#X obj 28 265 select 0 1;
#X obj 299 105 unpack 0 0 0 0 0 0 0 0;
#X text 518 274 forward ( 0 ) reverse ( 1 );
#X obj 118 310 spigot;
#X obj 195 308 spigot;
#X msg 22 296 1;
#X msg 22 322 0;
#X msg 65 293 1;
#X msg 57 323 0;
#X obj 115 351 bng 15 250 50 0 empty empty empty 0 -6 0 8 -262144 -1
-1;
#X obj 167 349 bng 15 250 50 0 empty empty empty 0 -6 0 8 -262144 -1
-1;
#X connect 0 0 10 0;
#X connect 2 0 3 0;
#X connect 3 0 4 0;
#X connect 4 0 0 0;
#X connect 5 0 7 0;
#X connect 6 0 5 0;
#X connect 6 1 9 1;
#X connect 7 0 8 0;
#X connect 8 0 9 0;
#X connect 9 0 11 0;
#X connect 9 0 11 1;
#X connect 10 0 37 1;
#X connect 11 0 12 0;
#X connect 11 0 12 1;
#X connect 12 0 10 1;
#X connect 13 0 14 0;
#X connect 13 0 29 0;
#X connect 14 0 26 0;
#X connect 15 0 34 0;
#X connect 16 0 25 1;
#X connect 17 0 28 0;
#X connect 18 0 25 4;
#X connect 19 0 25 0;
#X connect 20 0 21 0;
#X connect 21 0 22 0;
#X connect 22 0 23 0;
#X connect 23 0 49 0;
#X connect 23 0 48 1;
#X connect 24 0 15 0;
#X connect 25 0 30 0;
#X connect 25 0 31 0;
#X connect 25 0 32 0;
#X connect 25 0 33 0;
#X connect 26 0 19 0;
#X connect 26 1 20 0;
#X connect 26 2 16 0;
#X connect 26 2 17 0;
#X connect 26 2 18 0;
#X connect 26 2 24 0;
#X connect 27 0 25 2;
#X connect 27 0 49 1;
#X connect 27 0 48 0;
#X connect 28 0 27 0;
#X connect 29 0 47 0;
#X connect 30 0 47 0;
#X connect 31 0 6 0;
#X connect 32 0 46 0;
#X connect 33 0 2 0;
#X connect 34 0 6 0;
#X connect 35 0 51 0;
#X connect 36 0 37 0;
#X connect 37 0 1 0;
#X connect 46 0 4 0;
#X connect 47 0 0 1;
#X connect 48 0 54 0;
#X connect 49 0 53 0;
#X connect 50 0 55 0;
#X connect 50 0 56 0;
#X connect 50 1 57 0;
#X connect 50 1 58 0;
#X connect 51 0 20 1;
#X connect 51 0 13 0;
#X connect 51 1 19 1;
#X connect 51 2 24 1;
#X connect 51 3 18 1;
#X connect 51 4 17 1;
#X connect 51 5 16 1;
#X connect 51 6 15 1;
#X connect 51 7 50 0;
#X connect 53 0 25 3;
#X connect 53 0 59 0;
#X connect 54 0 25 3;
#X connect 54 0 60 0;
#X connect 55 0 53 1;
#X connect 56 0 54 1;
#X connect 57 0 54 1;
#X connect 58 0 53 1;
#X restore 17 542 pd sampvoice;
#X obj 539 95 r tempo;
#X floatatom 522 302 5 0 0 0 - - -;
#X floatatom 571 246 5 0 0 0 - - -;
#X floatatom 602 135 5 0 0 0 - - -;
#X floatatom 502 142 5 0 0 0 - - -;
#X msg 511 192 240;
#X obj 554 407 random 100;
#X obj 511 511 *~;
#X msg 576 476 0;
#X msg 530 474 1;
#X obj 617 174 loadbang;
#X floatatom 621 423 5 0 0 0 - - -;
#X obj 554 170 / 6;
#X obj 485 269 / 10;
#X msg 601 217 60;
#X obj 478 241 random 400;
#X obj 496 358 qdelay;
#X obj 333 265 bng 15 250 50 0 empty empty empty 0 -6 0 8 -262144 -1
-1;
#X obj 541 451 moses 0;
#X connect 0 0 22 0;
#X connect 1 0 2 0;
#X connect 1 1 12 1;
#X connect 2 0 3 0;
#X connect 2 0 5 0;
#X connect 3 0 4 0;
#X connect 4 0 2 1;
#X connect 5 0 6 0;
#X connect 5 1 6 1;
#X connect 6 0 7 0;
#X connect 6 2 7 1;
#X connect 7 0 12 0;
#X connect 8 0 0 1;
#X connect 8 0 13 0;
#X connect 8 1 21 0;
#X connect 8 1 22 1;
#X connect 8 2 20 0;
#X connect 8 2 23 1;
#X connect 8 3 19 0;
#X connect 8 3 24 1;
#X connect 8 4 18 0;
#X connect 8 4 25 1;
#X connect 8 5 17 0;
#X connect 8 5 26 1;
#X connect 8 6 16 0;
#X connect 8 6 27 1;
#X connect 8 7 15 0;
#X connect 8 7 28 1;
#X connect 8 8 14 0;
#X connect 9 0 11 0;
#X connect 11 0 1 0;
#X connect 11 1 12 2;
#X connect 11 2 5 2;
#X connect 11 2 12 3;
#X connect 11 3 12 4;
#X connect 11 4 12 5;
#X connect 11 5 12 6;
#X connect 11 6 12 7;
#X connect 11 7 12 8;
#X connect 12 0 8 0;
#X connect 12 0 46 0;
#X connect 22 0 23 0;
#X connect 23 0 24 0;
#X connect 24 0 25 0;
#X connect 25 0 26 0;
#X connect 26 0 27 0;
#X connect 27 0 28 0;
#X connect 28 0 10 0;
#X connect 28 0 45 0;
#X connect 29 0 33 0;
#X connect 29 0 41 0;
#X connect 30 0 45 1;
#X connect 31 0 45 2;
#X connect 32 0 41 1;
#X connect 34 0 41 0;
#X connect 35 0 47 0;
#X connect 36 0 10 0;
#X connect 37 0 36 1;
#X connect 38 0 36 1;
#X connect 39 0 43 0;
#X connect 40 0 47 1;
#X connect 41 0 30 0;
#X connect 42 0 30 0;
#X connect 43 0 31 0;
#X connect 44 0 42 0;
#X connect 45 0 36 0;
#X connect 46 0 44 0;
#X connect 46 0 35 0;
#X connect 47 0 38 0;
#X connect 47 1 37 0;
#X restore 44 73 pd bsampler;
#X obj 104 209 send~ channelA;
#X text 22 209 TO MIXER:;
#X obj 248 208 send~ channelB;
#N canvas 266 176 466 422 METRO-MAIN 0;
#X obj 110 281 metro 100;
#X floatatom 143 132 5 0 0 0 - - -;
#X obj 112 132 tgl 15 0 empty empty empty 17 7 0 10 -262144 -1 -1 1
1;
#X obj 110 307 outlet;
#X obj 173 194 /;
#X floatatom 171 251 5 0 0 0 - - -;
#X msg 143 165 1;
#X obj 174 223 * 60000;
#X text 148 116 bpm;
#X connect 0 0 3 0;
#X connect 1 0 4 1;
#X connect 1 0 6 0;
#X connect 2 0 0 0;
#X connect 4 0 7 0;
#X connect 5 0 0 1;
#X connect 6 0 4 0;
#X connect 7 0 5 0;
#X coords 0 -1 1 1 85 60 1 100 100;
#X restore 102 -264 pd METRO-MAIN;
#X obj 422 219 send~ channelC;
#N canvas 739 280 778 355 sequenceA 0;
#X floatatom 121 104 0 0 0 0 - - -;
#X obj 121 78 + 1;
#X obj 121 52 float;
#X obj 106 24 bng 15 250 50 0 empty empty empty 17 7 0 10 -262144 -1
-1;
#X obj 41 216 tgl 15 0 empty empty empty 17 7 0 10 -262144 -1 -1 1
1;
#X obj -2 253 spigot;
#X obj 94 217 tgl 15 0 empty empty empty 17 7 0 10 -262144 -1 -1 0
1;
#X obj 51 254 spigot;
#X obj 147 217 tgl 15 0 empty empty empty 17 7 0 10 -262144 -1 -1 0
1;
#X obj 104 254 spigot;
#X obj 199 217 tgl 15 0 empty empty empty 17 7 0 10 -262144 -1 -1 0
1;
#X obj 156 254 spigot;
#X obj 253 213 tgl 15 0 empty empty empty 17 7 0 10 -262144 -1 -1 1
1;
#X obj 210 250 spigot;
#X obj 310 210 tgl 15 0 empty empty empty 17 7 0 10 -262144 -1 -1 0
1;
#X obj 267 247 spigot;
#X obj 362 212 tgl 15 0 empty empty empty 17 7 0 10 -262144 -1 -1 0
1;
#X obj 319 249 spigot;
#X obj 413 212 tgl 15 0 empty empty empty 17 7 0 10 -262144 -1 -1 0
1;
#X obj 370 249 spigot;
#X obj 115 308 outlet;
#X msg 199 18 0;
#X obj 209 54 select 8;
#X obj 32 20 inlet;
#X msg 285 14 8;
#X msg 366 15 11;
#X obj 477 211 tgl 15 0 empty empty empty 17 7 0 10 -262144 -1 -1 0
1;
#X obj 434 248 spigot;
#X obj 529 213 tgl 15 0 empty empty empty 17 7 0 10 -262144 -1 -1 0
1;
#X obj 486 250 spigot;
#X obj 580 213 tgl 15 0 empty empty empty 17 7 0 10 -262144 -1 -1 0
1;
#X obj 537 250 spigot;
#X obj 121 135 select 1 2 3 4 5 6 7 8 9 10 11;
#X obj 430 106 loadbang;
#X connect 0 0 32 0;
#X connect 1 0 0 0;
#X connect 1 0 2 1;
#X connect 1 0 22 0;
#X connect 2 0 1 0;
#X connect 3 0 2 0;
#X connect 4 0 5 1;
#X connect 5 0 20 0;
#X connect 6 0 7 1;
#X connect 7 0 20 0;
#X connect 8 0 9 1;
#X connect 9 0 20 0;
#X connect 10 0 11 1;
#X connect 11 0 20 0;
#X connect 12 0 13 1;
#X connect 13 0 20 0;
#X connect 14 0 15 1;
#X connect 15 0 20 0;
#X connect 16 0 17 1;
#X connect 17 0 20 0;
#X connect 18 0 19 1;
#X connect 19 0 20 0;
#X connect 21 0 2 1;
#X connect 22 0 21 0;
#X connect 23 0 3 0;
#X connect 24 0 22 1;
#X connect 25 0 22 1;
#X connect 26 0 27 1;
#X connect 27 0 20 0;
#X connect 28 0 29 1;
#X connect 29 0 20 0;
#X connect 30 0 31 1;
#X connect 31 0 20 0;
#X connect 32 0 5 0;
#X connect 32 1 7 0;
#X connect 32 2 9 0;
#X connect 32 3 11 0;
#X connect 32 4 13 0;
#X connect 32 5 15 0;
#X connect 32 6 17 0;
#X connect 32 7 19 0;
#X connect 32 8 27 0;
#X connect 32 9 29 0;
#X connect 32 10 31 0;
#X connect 33 0 4 0;
#X connect 33 0 12 0;
#X restore 216 -65 pd sequenceA;
#N canvas 275 255 1071 632 synthA 0;
#X floatatom 652 374 0 0 0 0 - - -;
#N canvas 159 26 497 268 output 0;
#X obj 338 160 t b;
#X obj 338 110 f;
#X obj 338 60 inlet;
#X text 344 29 mute;
#X obj 338 185 f;
#X msg 425 178 0;
#X msg 338 85 bang;
#X obj 338 135 moses 1;
#X obj 425 153 t b f;
#X obj 397 117 moses 1;
#X obj 83 148 dbtorms;
#X obj 397 92 r master-lvl;
#X obj 83 42 r master-lvl;
#X obj 338 210 s master-lvl;
#X obj 22 181 inlet~;
#X obj 199 41 inlet;
#X text 199 18 level;
#X obj 199 100 s master-lvl;
#X msg 96 65 set \$1;
#X obj 96 89 outlet;
#X msg 214 64 \; pd dsp 1;
#X obj 83 194 line~;
#X obj 22 212 *~;
#X obj 22 241 dac~;
#X obj 83 171 pack 0 50;
#X text 20 158 audio;
#X text 93 110 show level;
#X connect 0 0 4 0;
#X connect 1 0 7 0;
#X connect 2 0 6 0;
#X connect 4 0 13 0;
#X connect 5 0 13 0;
#X connect 6 0 1 0;
#X connect 7 0 0 0;
#X connect 7 1 8 0;
#X connect 8 0 5 0;
#X connect 9 1 4 1;
#X connect 10 0 24 0;
#X connect 11 0 1 1;
#X connect 11 0 9 0;
#X connect 12 0 10 0;
#X connect 12 0 18 0;
#X connect 14 0 22 0;
#X connect 15 0 17 0;
#X connect 15 0 20 0;
#X connect 18 0 19 0;
#X connect 21 0 22 1;
#X connect 22 0 23 0;
#X connect 22 0 23 1;
#X connect 24 0 21 0;
#X restore 614 399 pd output;
#X msg 690 371 MUTE;
#X text 730 372 <-- output amplitude;
#X obj 208 207 osc~ 0;
#X obj 17 227 *~;
#X obj 17 274 cos~;
#X obj 17 299 hip~ 5;
#X obj 17 251 +~ 0.1;
#X floatatom 36 143 0 0 0 0 - - -;
#X floatatom 151 173 0 0 0 0 - - -;
#X floatatom 83 171 0 0 0 0 - - -;
#X floatatom 114 175 0 0 0 0 - - -;
#X msg 86 235 0;
#X msg 86 253 0.1;
#X msg 86 272 0.25;
#X text 119 255 <--symmetry;
#X text 65 109 ADSR controls;
#X text 36 123 lvl;
#X text 88 124 A;
#X text 130 125 D;
#X text 163 126 S;
#X obj 35 167 / 100;
#X msg 582 307 0;
#X obj 699 124 loadbang;
#X floatatom 135 232 5 0 0 0 - - -;
#X obj 97 302 / 100;
#X obj 810 421 inlet;
#X msg 725 422 93;
#X floatatom 183 175 5 0 0 0 - - -;
#X obj 208 8 inlet;
#X obj 17 6 inlet;
#X obj 50 48 bng 15 250 50 0 empty empty empty 17 7 0 10 -262144 -1
-1;
#X floatatom 261 146 5 0 0 0 - - -;
#X msg 82 144 9;
#X msg 114 144 214;
#X msg 150 145 201;
#N canvas 0 3 824 577 adsr 0;
#X obj 115 121 inlet;
#X obj 445 161 inlet;
#X text 111 96 trigger;
#X obj 115 149 sel 0;
#X obj 254 165 t b;
#X obj 176 274 f \$1;
#X obj 176 299 pack 0 \$2;
#X obj 502 161 inlet;
#X obj 448 291 del \$2;
#X obj 468 439 line~;
#X obj 472 314 f \$4;
#X obj 511 389 pack 0 \$3;
#X obj 564 161 inlet;
#X obj 626 161 inlet;
#X obj 699 160 inlet;
#X msg 115 180 stop;
#X obj 622 316 pack 0 \$5;
#X text 445 139 level;
#X obj 511 365 * \$1;
#X obj 468 464 outlet~;
#X text 112 388 and pack with;
#X text 113 408 attack time;
#X text 41 136 if zero;
#X text 42 153 release;
#X text 22 170 and cancel;
#X text 53 187 decay;
#X text 294 282 on attack \, set a;
#X text 288 315 recall sustain value;
#X text 325 388 pack with decay time;
#X text 615 342 on release ramp;
#X text 616 359 back to zero;
#X obj 472 339 * 0.01;
#X text 57 577 Objects such as "f" and "pack" can be given dollar sign
arguments to initialize their contents from adsr's creation arguments.
Inlets are supplied to change them on the fly.;
#X text 23 12 ADSR ENVELOPE;
#X text 498 139 attack;
#X text 565 138 decay;
#X text 619 139 sustain;
#X text 696 139 release;
#X text 212 81 attack;
#X obj 214 102 moses;
#X obj 204 132 t b b;
#X msg 138 300 0;
#X text 30 283 optionally;
#X text 20 301 bash to zero;
#X text 35 256 ATTACK:;
#X text 59 487 When you send this patch a positive trigger it schedules
a line~ to do an attack and decay \, and if zero \, it starts the release
ramp.;
#X text 505 639 Updated for Pd version 0.37;
#X text 265 99 test for negative trigger;
#X text 263 123 if so \, zero;
#X text 264 139 the output;
#X text 288 175 in any case;
#X text 313 365 multiply by peak level;
#X text 290 296 delay for sustain;
#X text 286 338 convert from percent;
#X text 165 350 ... then;
#X text 113 369 recall peak level;
#X text 449 123 peak;
#X text 291 159 ... do this;
#X text 57 539 Negative triggers cause the output to jump to zero and
then attack (instead of attacking from the current location).;
#X text 218 11 Arguments: level \, attack time \, decay time \, sustain
level \, release time. A \, D \, and R are in msec and S is in percent.
This patch is used as an abstraction in various examples.;
#X connect 0 0 3 0;
#X connect 1 0 5 1;
#X connect 1 0 18 1;
#X connect 3 0 15 0;
#X connect 3 0 16 0;
#X connect 3 1 39 0;
#X connect 4 0 5 0;
#X connect 4 0 8 0;
#X connect 5 0 6 0;
#X connect 6 0 9 0;
#X connect 7 0 6 1;
#X connect 7 0 8 1;
#X connect 8 0 10 0;
#X connect 9 0 19 0;
#X connect 10 0 31 0;
#X connect 11 0 9 0;
#X connect 12 0 11 1;
#X connect 13 0 10 1;
#X connect 14 0 16 1;
#X connect 15 0 8 0;
#X connect 16 0 9 0;
#X connect 18 0 11 0;
#X connect 31 0 18 0;
#X connect 39 0 40 0;
#X connect 39 1 4 0;
#X connect 40 0 4 0;
#X connect 40 1 41 0;
#X connect 41 0 9 0;
#X restore 17 198 pd adsr 1 65 13 300 1000;
#X msg 189 145 300;
#X msg 653 203 55;
#X msg 604 201 97;
#X obj 18 472 outlet~;
#X msg 111 51 1;
#X connect 0 0 1 1;
#X connect 1 0 0 0;
#X connect 2 0 1 2;
#X connect 4 0 5 1;
#X connect 5 0 8 0;
#X connect 6 0 7 0;
#X connect 7 0 41 0;
#X connect 8 0 6 0;
#X connect 9 0 22 0;
#X connect 10 0 37 4;
#X connect 11 0 37 2;
#X connect 12 0 37 3;
#X connect 13 0 8 1;
#X connect 14 0 8 1;
#X connect 15 0 8 1;
#X connect 22 0 37 1;
#X connect 23 0 0 0;
#X connect 24 0 40 0;
#X connect 24 0 34 0;
#X connect 24 0 35 0;
#X connect 24 0 36 0;
#X connect 24 0 38 0;
#X connect 24 0 39 0;
#X connect 25 0 26 0;
#X connect 26 0 8 1;
#X connect 27 0 0 0;
#X connect 28 0 0 0;
#X connect 29 0 37 5;
#X connect 30 0 4 0;
#X connect 31 0 32 0;
#X connect 33 0 4 0;
#X connect 34 0 11 0;
#X connect 35 0 12 0;
#X connect 36 0 10 0;
#X connect 37 0 5 0;
#X connect 38 0 29 0;
#X connect 39 0 9 0;
#X connect 40 0 0 0;
#X connect 42 0 37 0;
#X connect 42 0 4 0;
#X restore 439 -97 pd synthA;
#N canvas 886 164 1080 661 synthB 0;
#X obj 779 190 loadbang;
#X obj 414 29 metro 100;
#X floatatom 414 4 0 0 0 0 - - -;
#X floatatom 503 29 0 0 0 0 - - -;
#X obj 285 198 osc~ 0;
#X msg 414 -22 1;
#X text 443 -22 <--START;
#X text 538 32 <--msec;
#X text 498 355 updated for Pd version 0.34;
#X obj 544 -26 r tempo;
#X floatatom 360 605 5 0 0 0 - - -;
#X obj 330 545 / 5;
#X msg 19 432 240;
#X msg 52 431 240;
#X obj 87 536 * 32;
#X obj 87 564 / 31;
#X obj 126 537 * 16;
#X obj 129 566 / 15;
#X obj 164 537 * 10;
#X obj 161 556 / 9;
#X text 30 447 sa ri1 ri2 ri3 ri4;
#X obj 201 539 * 9;
#X obj 193 569 / 8;
#X obj 285 524 * 32;
#X obj 284 566 / 27;
#X obj 330 523 * 6;
#X obj 374 511 * 5;
#X obj 375 560 / 4;
#X obj 411 518 * 81;
#X obj 411 541 / 64;
#X obj 443 504 * 4;
#X obj 443 553 / 3;
#X obj 468 520 * 27;
#X obj 469 542 / 20;
#X obj 511 522 * 45;
#X obj 511 544 / 32;
#X obj 713 545 / 3;
#X obj 738 512 * 27;
#X obj 555 516 * 64;
#X obj 554 556 / 45;
#X obj 600 515 * 3;
#X obj 600 537 / 2;
#X obj 632 507 * 128;
#X obj 645 552 / 81;
#X obj 681 510 * 8;
#X obj 681 533 / 5;
#X obj 714 496 * 5;
#X obj 739 534 / 16;
#X obj 781 514 * 16;
#X obj 781 536 / 9;
#X obj 837 502 * 9;
#X obj 836 550 / 5;
#X obj 861 517 * 15;
#X obj 862 539 / 8;
#X obj 904 519 * 31;
#X obj 904 541 / 16;
#X msg 87 470 240;
#X msg 121 473 240;
#X msg 156 474 240;
#X msg 325 433 240;
#X msg 351 472 240;
#X msg 386 474 240;
#X msg 418 472 240;
#X msg 450 434 240;
#X msg 484 473 240;
#X msg 518 473 240;
#X msg 551 473 240;
#X msg 577 432 240;
#X msg 612 432 240;
#X msg 649 469 240;
#X msg 716 459 240;
#X msg 757 460 240;
#X msg 794 419 240;
#X msg 825 457 240;
#X msg 857 460 240;
#X msg 892 458 240;
#X msg 950 453 480;
#X text 715 435 dha3 dha4 ni1 ni2 ni3 ni4;
#X text 326 450 ga1 ga2 ga3 ga4 ma1 ma2 ma3 ma4 pa dha1 dha2;
#X floatatom 350 253 5 0 0 0 - - -;
#X msg 409 145 46;
#X msg 466 156 9;
#X msg 536 156 214;
#X obj 700 134 loadbang;
#X obj 549 121 tabread seq2;
#X obj 758 85 table seq2;
#X msg 613 158 50;
#X obj 410 330 inlet;
#X obj 557 6 * 1;
#X obj 546 61 f;
#X floatatom 529 87 5 0 0 0 - - -;
#X obj 590 60 + 1;
#X obj 362 196 / 4;
#X obj 4 -6 inlet;
#X obj 4 405 outlet~;
#X msg 417 214 \; seq2 0 240 379.2 360 320 284.4 247.7 256;
#X msg 648 58 8;
#X msg 694 58 11;
#X obj 585 92 mod 8;
#X msg 737 55 16;
#N canvas 158 4 781 654 16x 0;
#X obj 69 345 *~ 0.064;
#X obj 69 368 rpole~ 0.93538;
#X obj 69 391 *~ 0.00431;
#X obj 69 414 cpole~ 0.96559 0.05592;
#X obj 69 440 cpole~ 0.96559 -0.05592;
#X obj 69 463 *~ 0.125;
#X obj 69 486 rzero~ -1;
#X obj 69 509 rzero~ -1;
#X obj 69 532 rzero~ -1;
#X obj 63 97 phasor~;
#X obj 69 566 outlet~;
#X obj 86 151 wrap~;
#X obj 86 127 -~;
#X obj 86 175 *~;
#X obj 63 204 +~;
#X obj 271 156 phasor~;
#X obj 294 210 wrap~;
#X obj 294 186 -~;
#X obj 294 234 *~;
#X obj 271 263 +~;
#X obj 64 271 +~;
#X obj 457 31 block~ 1024 1 16;
#X obj 62 29 inlet;
#X obj 250 34 r osc-params;
#X obj 250 57 unpack 0 0 0 0 0 0;
#X obj 272 100 *~;
#X obj 272 128 +~;
#X msg 341 338 \; osc-params 0.5 -0.5 0.5 0.5 1 0.5;
#X obj 341 312 loadbang;
#X connect 0 0 1 0;
#X connect 1 0 2 0;
#X connect 2 0 3 0;
#X connect 3 0 4 0;
#X connect 3 1 4 1;
#X connect 4 0 5 0;
#X connect 5 0 6 0;
#X connect 6 0 7 0;
#X connect 7 0 8 0;
#X connect 8 0 10 0;
#X connect 9 0 12 0;
#X connect 9 0 14 0;
#X connect 11 0 13 0;
#X connect 12 0 11 0;
#X connect 13 0 14 1;
#X connect 14 0 20 0;
#X connect 15 0 17 0;
#X connect 15 0 19 0;
#X connect 16 0 18 0;
#X connect 17 0 16 0;
#X connect 18 0 19 1;
#X connect 19 0 20 1;
#X connect 20 0 0 0;
#X connect 22 0 9 0;
#X connect 22 0 25 0;
#X connect 23 0 24 0;
#X connect 24 0 12 1;
#X connect 24 1 13 1;
#X connect 24 2 17 1;
#X connect 24 3 18 1;
#X connect 24 4 25 1;
#X connect 24 5 26 1;
#X connect 25 0 26 0;
#X connect 26 0 15 0;
#X connect 28 0 27 0;
#X restore 17 209 pd 16x;
#X obj 66 338 output~;
#X text 103 79 THE CLASSIC SUBTRACTIVE SYNTH SOUND;
#X obj 130 186 *~;
#X obj 129 156 +~ 0.2;
#X obj 129 210 *~ 2000;
#X obj 96 285 *~;
#X obj 21 272 *~;
#X obj 19 176 mtof;
#X obj 19 67 r \$0-note;
#X obj 19 116 makenote 1;
#X obj 20 246 vcf~ 3;
#X floatatom 206 166 3 0 0 0 - - -;
#X floatatom 206 211 7 0 0 0 - - -;
#X obj 206 187 mtof;
#X obj 19 146 poly 1 1;
#X obj 19 90 unpack;
#X obj 98 257 adsr 2 30 200 50 500;
#X obj 129 131 adsr 1 10 200 50 500;
#X obj 243 352 s \$0-note;
#X obj 243 326 pack 0 200;
#X floatatom 126 234 5 0 0 0 - - -;
#X floatatom 170 233 5 0 0 0 - - -;
#X floatatom 215 232 5 0 0 0 - - -;
#X floatatom 261 231 5 0 0 0 - - -;
#X floatatom 266 254 5 0 0 0 - - -;
#X obj 282 147 send synthmodA;
#X msg 483 326 \; seq2 0 240 284.4 240 320 240 360 240 426.6 240 480
240 284.3 270 266.6 256 247.7;
#X msg 478 269 \; seq2 0 240 284.4 240 320 240 360 240 426.6 240 480
240 284.3 240 426.6 240 480 240;
#X connect 0 0 128 0;
#X connect 0 0 99 0;
#X connect 1 0 89 0;
#X connect 2 0 1 0;
#X connect 3 0 1 1;
#X connect 5 0 2 0;
#X connect 9 0 88 0;
#X connect 10 0 92 0;
#X connect 11 0 10 0;
#X connect 12 0 10 0;
#X connect 13 0 14 0;
#X connect 14 0 15 0;
#X connect 15 0 10 0;
#X connect 16 0 17 0;
#X connect 17 0 10 0;
#X connect 18 0 19 0;
#X connect 19 0 10 0;
#X connect 21 0 22 0;
#X connect 22 0 10 0;
#X connect 23 0 24 0;
#X connect 24 0 10 0;
#X connect 25 0 11 0;
#X connect 26 0 27 0;
#X connect 27 0 10 0;
#X connect 28 0 29 0;
#X connect 29 0 10 0;
#X connect 30 0 31 0;
#X connect 31 0 10 0;
#X connect 32 0 33 0;
#X connect 33 0 10 0;
#X connect 34 0 35 0;
#X connect 35 0 10 0;
#X connect 36 0 10 0;
#X connect 37 0 47 0;
#X connect 38 0 39 0;
#X connect 39 0 10 0;
#X connect 40 0 41 0;
#X connect 41 0 10 0;
#X connect 42 0 43 0;
#X connect 43 0 10 0;
#X connect 44 0 45 0;
#X connect 45 0 10 0;
#X connect 46 0 36 0;
#X connect 47 0 10 0;
#X connect 48 0 49 0;
#X connect 49 0 10 0;
#X connect 50 0 51 0;
#X connect 51 0 10 0;
#X connect 52 0 53 0;
#X connect 53 0 10 0;
#X connect 54 0 55 0;
#X connect 55 0 10 0;
#X connect 56 0 16 0;
#X connect 57 0 18 0;
#X connect 58 0 21 0;
#X connect 59 0 23 0;
#X connect 60 0 25 0;
#X connect 61 0 26 0;
#X connect 62 0 28 0;
#X connect 63 0 30 0;
#X connect 64 0 32 0;
#X connect 65 0 34 0;
#X connect 66 0 38 0;
#X connect 67 0 40 0;
#X connect 68 0 42 0;
#X connect 69 0 44 0;
#X connect 70 0 46 0;
#X connect 71 0 37 0;
#X connect 72 0 48 0;
#X connect 73 0 50 0;
#X connect 74 0 52 0;
#X connect 75 0 54 0;
#X connect 76 0 10 0;
#X connect 79 0 4 0;
#X connect 79 0 120 0;
#X connect 83 0 80 0;
#X connect 83 0 81 0;
#X connect 83 0 82 0;
#X connect 83 0 86 0;
#X connect 84 0 92 0;
#X connect 87 0 88 1;
#X connect 88 0 3 0;
#X connect 89 0 84 0;
#X connect 89 0 90 0;
#X connect 89 0 91 0;
#X connect 91 0 98 0;
#X connect 92 0 79 0;
#X connect 93 0 89 0;
#X connect 96 0 98 1;
#X connect 97 0 98 1;
#X connect 98 0 89 1;
#X connect 99 0 98 1;
#X connect 100 0 111 0;
#X connect 103 0 105 0;
#X connect 104 0 103 0;
#X connect 104 0 103 1;
#X connect 105 0 111 1;
#X connect 106 0 107 1;
#X connect 107 0 94 0;
#X connect 108 0 100 0;
#X connect 109 0 116 0;
#X connect 110 0 115 0;
#X connect 110 1 115 1;
#X connect 111 0 107 0;
#X connect 112 0 114 0;
#X connect 112 0 126 0;
#X connect 113 0 105 1;
#X connect 114 0 113 0;
#X connect 115 1 100 0;
#X connect 115 2 118 0;
#X connect 115 2 117 0;
#X connect 116 0 110 0;
#X connect 116 1 110 2;
#X connect 117 0 106 0;
#X connect 117 0 106 1;
#X connect 118 0 104 0;
#X connect 120 0 119 0;
#X connect 121 0 117 1;
#X connect 122 0 117 2;
#X connect 123 0 117 3;
#X connect 124 0 117 4;
#X connect 125 0 117 5;
#X connect 125 0 118 5;
#X restore 435 -7 pd synthB;
#N canvas 909 117 1003 581 kick 0;
#X obj 405 137 phasor~;
#N canvas 0 0 474 352 slave 0;
#X obj 125 129 *~;
#X obj 125 159 cos~;
#X obj 125 187 *~;
#X obj 206 166 dbtorms;
#X floatatom 205 105 10 0 0 0 - - -;
#X obj 208 124 hsl 70 13 0 100 0 0 empty empty empty -2 -8 0 10 -262144
-1 -1 0 1;
#X floatatom 206 143 5 0 0 0 - - -;
#X obj 124 211 throw~ sum;
#X obj 126 103 r~ sync;
#X connect 0 0 1 0;
#X connect 1 0 2 0;
#X connect 2 0 7 0;
#X connect 3 0 2 1;
#X connect 4 0 0 1;
#X connect 5 0 6 0;
#X connect 6 0 3 0;
#X connect 8 0 0 0;
#X coords 0 -1 1 1 85 60 2 200 100;
#X restore 115 274 pd slave;
#X obj 732 -62 catch~ sum;
#X obj 404 162 s~ sync;
#X obj 40 290 cos~;
#X obj 39 318 throw~ sum;
#X obj 39 265 r~ sync;
#X obj 730 42 *~;
#X obj 826 -63 r~ envelope;
#X obj 730 107 *~;
#X obj 783 55 hsl 128 15 0 127 0 0 empty empty empty -2 -8 0 10 -262144
-1 -1 9900 1;
#X obj 642 60 vline~;
#N canvas 0 0 474 352 slave 0;
#X obj 125 129 *~;
#X obj 125 159 cos~;
#X obj 125 187 *~;
#X obj 206 166 dbtorms;
#X floatatom 205 105 10 0 0 0 - - -;
#X obj 208 124 hsl 70 13 0 100 0 0 empty empty empty -2 -8 0 10 -262144
-1 -1 0 1;
#X floatatom 206 143 5 0 0 0 - - -;
#X obj 124 211 throw~ sum;
#X obj 126 103 r~ sync;
#X connect 0 0 1 0;
#X connect 1 0 2 0;
#X connect 2 0 7 0;
#X connect 3 0 2 1;
#X connect 4 0 0 1;
#X connect 5 0 6 0;
#X connect 6 0 3 0;
#X connect 8 0 0 0;
#X coords 0 -1 1 1 85 60 2 200 100;
#X restore 205 274 pd slave;
#N canvas 0 0 474 352 slave 0;
#X obj 125 129 *~;
#X obj 125 159 cos~;
#X obj 125 187 *~;
#X obj 206 166 dbtorms;
#X floatatom 205 105 10 0 0 0 - - -;
#X obj 208 124 hsl 70 13 0 100 0 0 empty empty empty -2 -8 0 10 -262144
-1 -1 0 1;
#X floatatom 206 143 5 0 0 0 - - -;
#X obj 124 211 throw~ sum;
#X obj 126 103 r~ sync;
#X connect 0 0 1 0;
#X connect 1 0 2 0;
#X connect 2 0 7 0;
#X connect 3 0 2 1;
#X connect 4 0 0 1;
#X connect 5 0 6 0;
#X connect 6 0 3 0;
#X connect 8 0 0 0;
#X coords 0 -1 1 1 85 60 2 200 100;
#X restore 295 274 pd slave;
#N canvas 0 0 474 352 slave 0;
#X obj 125 129 *~;
#X obj 125 159 cos~;
#X obj 125 187 *~;
#X obj 206 166 dbtorms;
#X floatatom 205 105 10 0 0 0 - - -;
#X obj 208 124 hsl 70 13 0 100 0 0 empty empty empty -2 -8 0 10 -262144
-1 -1 0 1;
#X floatatom 206 143 5 0 0 0 - - -;
#X obj 124 211 throw~ sum;
#X obj 126 103 r~ sync;
#X connect 0 0 1 0;
#X connect 1 0 2 0;
#X connect 2 0 7 0;
#X connect 3 0 2 1;
#X connect 4 0 0 1;
#X connect 5 0 6 0;
#X connect 6 0 3 0;
#X connect 8 0 0 0;
#X coords 0 -1 1 1 85 60 2 200 100;
#X restore 385 274 pd slave;
#N canvas 0 0 474 352 slave 0;
#X obj 125 129 *~;
#X obj 125 159 cos~;
#X obj 125 187 *~;
#X obj 206 166 dbtorms;
#X floatatom 205 105 10 0 0 0 - - -;
#X obj 208 124 hsl 70 13 0 100 0 0 empty empty empty -2 -8 0 10 -262144
-1 -1 0 1;
#X floatatom 206 143 5 0 0 0 - - -;
#X obj 124 211 throw~ sum;
#X obj 126 103 r~ sync;
#X connect 0 0 1 0;
#X connect 1 0 2 0;
#X connect 2 0 7 0;
#X connect 3 0 2 1;
#X connect 4 0 0 1;
#X connect 5 0 6 0;
#X connect 6 0 3 0;
#X connect 8 0 0 0;
#X coords 0 -1 1 1 85 60 2 200 100;
#X restore 475 274 pd slave;
#N canvas 0 0 474 352 slave 0;
#X obj 125 129 *~;
#X obj 125 159 cos~;
#X obj 125 187 *~;
#X obj 206 166 dbtorms;
#X floatatom 205 105 10 0 0 0 - - -;
#X obj 208 124 hsl 70 13 0 100 0 0 empty empty empty -2 -8 0 10 -262144
-1 -1 0 1;
#X floatatom 206 143 5 0 0 0 - - -;
#X obj 124 211 throw~ sum;
#X obj 126 103 r~ sync;
#X connect 0 0 1 0;
#X connect 1 0 2 0;
#X connect 2 0 7 0;
#X connect 3 0 2 1;
#X connect 4 0 0 1;
#X connect 5 0 6 0;
#X connect 6 0 3 0;
#X connect 8 0 0 0;
#X coords 0 -1 1 1 85 60 2 200 100;
#X restore 565 274 pd slave;
#N canvas 0 3 906 466 (subpatch) 0;
#X obj 136 84 r~ sync;
#X obj 135 112 *~ 5.0397;
#X obj 135 368 throw~ sum;
#X obj 225 84 phasor~ 58.3722;
#X obj 224 116 cos~;
#X obj 224 180 *~;
#X obj 366 223 dbtorms;
#X obj 82 331 s~ feed;
#X obj 336 36 r~ feed;
#X obj 336 88 *~;
#X obj 424 222 dbtorms;
#X obj 570 26 table saw;
#X msg 488 53 \; saw sinesum 1024 -1 -0.5 -0.333333 -0.25 -0.2 -0.166667
-0.142857 -0.125 \; saw normalize 1;
#X obj 488 27 loadbang;
#X obj 135 302 tabread4~ saw;
#X obj 136 265 *~ 1024;
#X obj 135 284 +~ 1;
#X obj 136 243 wrap~;
#X obj 422 106 vsl 15 100 0 100 0 0 empty empty empty 0 -9 0 10 -262144
-1 -1 0 1;
#X obj 403 106 vsl 15 100 0 100 0 0 empty empty empty 0 -9 0 10 -262144
-1 -1 0 1;
#X obj 480 223 dbtorms;
#X obj 136 338 *~;
#X text 406 113 f;
#X text 407 176 1;
#X text 406 122 e;
#X text 407 132 e;
#X text 407 142 d;
#X text 407 153 t;
#X text 407 164 o;
#X text 427 164 o;
#X text 427 176 2;
#X obj 440 106 vsl 15 100 0 100 0 0 empty empty empty 0 -9 0 10 -262144
-1 -1 0 1;
#X text 444 118 o;
#X text 444 130 u;
#X text 444 144 t;
#X text 425 113 f;
#X text 425 122 e;
#X text 426 132 e;
#X text 426 142 d;
#X text 426 153 t;
#X connect 0 0 1 0;
#X connect 1 0 17 0;
#X connect 3 0 4 0;
#X connect 4 0 5 0;
#X connect 5 0 17 0;
#X connect 6 0 5 1;
#X connect 8 0 9 0;
#X connect 9 0 4 0;
#X connect 10 0 9 1;
#X connect 13 0 12 0;
#X connect 14 0 7 0;
#X connect 14 0 21 0;
#X connect 15 0 16 0;
#X connect 16 0 14 0;
#X connect 17 0 15 0;
#X connect 18 0 10 0;
#X connect 19 0 6 0;
#X connect 20 0 21 1;
#X connect 21 0 2 0;
#X connect 31 0 20 0;
#X coords 0 -1 1 1 60 111 2 400 100;
#X restore 116 350 pd;
#X obj 171 88 s~ envelope;
#X obj 171 61 vline~;
#X obj 423 -64 r~ envelope;
#X obj 96 34 s gate-on;
#X floatatom 864 83 5 0 0 0 - - -;
#X floatatom 443 84 5 0.1 500.5 0 - - -;
#X obj 527 41 r gate-on;
#X msg 117 243 1.8598;
#X msg 207 243 1.8877;
#X msg 295 243 2.7208;
#X msg 387 239 5.1057;
#X msg 473 237 3.64;
#X msg 580 242 4.5041;
#X obj 164 -73 tgl 15 0 empty empty empty 17 7 0 10 -262144 -1 -1 0
1;
#X floatatom 216 -67 5 0 0 0 - - -;
#X obj 164 -47 metro 430;
#X obj 404 109 *~ 49;
#X obj 403 47 pow~;
#X obj 381 3 sig~ 2;
#X obj 424 26 *~;
#X floatatom 500 4 5 0 0 0 - - -;
#X obj 825 1 cos~;
#X obj 826 -41 *~ 0.25;
#X obj 826 -21 -~ 0.25;
#X obj 500 -22 / 12;
#X floatatom 500 -45 5 0 0 0 - - -;
#X obj 96 -15 t b;
#X obj 642 -25 r gate-on;
#X obj 730 267 -~;
#X obj 775 237 hip~ 135;
#N canvas 576 390 450 300 delwrite 0;
#X obj 146 40 inlet~;
#X obj 145 65 delwrite~ delay 1000;
#X obj 144 123 outlet~;
#X connect 0 0 1 0;
#X restore 775 174 pd delwrite;
#N canvas 0 3 450 300 delread 0;
#X obj 226 76 inlet~;
#X obj 216 241 outlet~;
#X obj 331 79 inlet;
#X obj 255 152 delread~ delay 0.025;
#X connect 2 0 3 0;
#X connect 3 0 1 0;
#X restore 774 201 pd delread;
#X floatatom 856 176 5 0 0 0 - - -;
#X floatatom 852 216 5 0 0 0 - - -;
#X floatatom 601 -25 5 0 1 0 - - -;
#X obj 643 3 f 1;
#X obj 527 78 f 0;
#X floatatom 556 73 5 0 1 0 - - -;
#X msg 173 35 1 0.5 \, 0 186 0.5;
#X text 444 69 base-pitch;
#X text 500 -67 sweep (semitones);
#X text 600 -45 click level;
#X msg 642 26 \$1 \, 0 0 1;
#X text 227 214 --- partials 1-6 : times base pitch \, level (dB) ---
;
#X text 554 88 start phase;
#X obj 726 313 hip~ 5;
#X text 195 370 <-two op fm with feedback;
#X text 895 458 slp@2010;
#X obj 29 -61 inlet;
#X obj 710 417 outlet~;
#X obj 771 88 dbtorms 99;
#X obj 918 -17 loadbang;
#X msg 917 19 99;
#X connect 0 0 3 0;
#X connect 2 0 7 0;
#X connect 4 0 5 0;
#X connect 6 0 4 0;
#X connect 7 0 9 0;
#X connect 8 0 40 0;
#X connect 9 0 46 0;
#X connect 9 0 48 0;
#X connect 10 0 22 0;
#X connect 10 0 68 0;
#X connect 11 0 9 0;
#X connect 19 0 18 0;
#X connect 20 0 37 0;
#X connect 23 0 34 1;
#X connect 24 0 54 0;
#X connect 31 0 33 0;
#X connect 32 0 33 1;
#X connect 34 0 0 0;
#X connect 35 0 34 0;
#X connect 36 0 35 0;
#X connect 37 0 35 1;
#X connect 38 0 37 1;
#X connect 39 0 7 1;
#X connect 40 0 41 0;
#X connect 41 0 39 0;
#X connect 42 0 38 0;
#X connect 43 0 42 0;
#X connect 44 0 21 0;
#X connect 44 0 56 0;
#X connect 45 0 53 0;
#X connect 46 0 63 0;
#X connect 47 0 46 1;
#X connect 48 0 49 0;
#X connect 49 0 47 0;
#X connect 50 0 49 1;
#X connect 51 0 47 1;
#X connect 52 0 53 1;
#X connect 53 0 60 0;
#X connect 54 0 0 1;
#X connect 55 0 54 1;
#X connect 56 0 19 0;
#X connect 60 0 11 0;
#X connect 63 0 67 0;
#X connect 66 0 44 0;
#X connect 68 0 9 1;
#X connect 69 0 70 0;
#X connect 70 0 10 0;
#X restore 288 -9 pd kick;
#X obj 611 216 send~ channelD;
#X obj 290 174 send kicklevel;
#X obj 331 23 env~;
#X floatatom 303 139 5 0 0 0 - - -;
#X obj 320 53 * 0.01;
#X obj 309 114 line 0 0;
#X obj 308 89 pack 1 100;
#X obj 117 -145 spigot;
#X obj 157 -164 tgl 15 0 empty empty empty 17 7 0 10 -262144 -1 -1
1 1;
#X connect 3 0 2 0;
#X connect 9 0 12 0;
#X connect 12 0 13 0;
#X connect 16 0 20 0;
#X connect 16 0 29 0;
#X connect 18 0 21 0;
#X connect 20 0 17 0;
#X connect 21 0 15 0;
#X connect 21 0 24 0;
#X connect 24 0 26 0;
#X connect 25 0 23 0;
#X connect 26 0 28 0;
#X connect 27 0 25 0;
#X connect 28 0 27 0;
#X connect 29 0 18 0;
#X connect 30 0 29 1;
#X restore 16 107 pd sequencer;
#X text 16 73 various samplers and synths;
#X text 16 4 instruments in pd sequencer sent here for mixing.;
#X text 16 142 store and load samples;
#N canvas 0 16 1138 802 sample-tables 0;
#X obj 264 25 inlet;
#X obj 209 209 adc~ 1;
#X obj 209 242 hip~ 5;
#X obj 292 278 line~;
#X obj 209 277 *~;
#X msg 292 245 1;
#X obj 362 203 del 3990;
#X msg 335 245 0 10;
#X obj 209 338 tabwrite~ sample1;
#X obj 31 106 makefilename sample%1;
#X msg 31 140 set \$1 \, bang;
#X msg 418 168 stop;
#X msg 362 168 bang;
#X obj 402 268 loadbang;
#X obj 617 136 openpanel;
#X msg 617 102 bang;
#X text 393 325 v-- re-read original samples;
#X obj 404 415 soundfiler;
#X obj 617 200 soundfiler;
#X msg 614 169 read \$1 sample1;
#X obj 748 137 openpanel;
#X msg 748 103 bang;
#X obj 748 201 soundfiler;
#X msg 745 170 read \$1 sample2;
#X obj 882 138 openpanel;
#X msg 882 104 bang;
#X obj 882 202 soundfiler;
#X obj 1012 138 openpanel;
#X msg 1012 104 bang;
#X obj 1012 202 soundfiler;
#X obj 631 281 openpanel;
#X msg 631 247 bang;
#X obj 631 345 soundfiler;
#X obj 757 280 openpanel;
#X msg 757 246 bang;
#X obj 757 344 soundfiler;
#X obj 888 283 openpanel;
#X msg 888 249 bang;
#X obj 888 347 soundfiler;
#X obj 1020 283 openpanel;
#X msg 1020 249 bang;
#X obj 1020 347 soundfiler;
#X msg 879 171 read \$1 sample3;
#X msg 1008 172 read \$1 sample4;
#X msg 624 314 read \$1 sample5;
#X msg 754 313 read \$1 sample6;
#X msg 885 316 read \$1 sample7;
#X msg 1011 316 read \$1 sample8;
#X obj 313 32 route record stop reload browse browse2 b3 b4 b5 b6 b7
b8;
#X obj 502 419 loadbang;
#X obj 494 468 soundfiler;
#X obj 499 495 loadbang;
#X obj 491 544 soundfiler;
#X obj 489 568 loadbang;
#X obj 481 617 soundfiler;
#X obj 778 401 loadbang;
#X obj 770 450 soundfiler;
#X obj 774 478 loadbang;
#X obj 766 527 soundfiler;
#X obj 775 551 loadbang;
#X obj 767 600 soundfiler;
#X obj 770 625 loadbang;
#X obj 762 674 soundfiler;
#X obj 1068 381 loadbang;
#X obj 1060 430 soundfiler;
#X msg 1066 408 read ./prodA/kickr6.wav sample9;
#X obj 1065 458 loadbang;
#X obj 1057 507 soundfiler;
#X obj 1333 384 loadbang;
#X obj 1325 433 soundfiler;
#X obj 1333 461 loadbang;
#X obj 1325 510 soundfiler;
#X obj 1323 532 loadbang;
#X obj 1315 581 soundfiler;
#X obj 1323 609 loadbang;
#X obj 1315 658 soundfiler;
#X msg 1331 411 read ./prodA/snareh05.wav sample13;
#X msg 1328 487 read ./prodA/snareh06.wav sample14;
#X msg 1322 560 read ./prodA/snareh07.wav sample15;
#X msg 1315 631 read ./prodA/snareh06.wav sample16;
#N canvas 25 27 1106 788 samples 0;
#N canvas 0 0 452 302 (subpatch) 0;
#X array sample1 1e+007 float 0;
#X coords 0 1 1e+007 -1 200 140 1;
#X restore 65 24 graph;
#N canvas 0 0 454 304 (subpatch) 0;
#X array sample2 1e+006 float 0;
#X coords 0 1 999999 -1 200 140 1;
#X restore 67 177 graph;
#N canvas 0 0 450 300 (subpatch) 0;
#X array sample3 1e+006 float 0;
#X coords 0 1 1e+007 -1 200 140 1;
#X restore 66 337 graph;
#N canvas 0 0 450 300 (subpatch) 0;
#X array sample4 1e+007 float 0;
#X coords 0 1 1e+007 -1 200 140 1;
#X restore 68 491 graph;
#N canvas 0 0 450 300 (subpatch) 0;
#X array sample5 50000 float 0;
#X coords 0 1 50000 -1 200 140 1;
#X restore 360 26 graph;
#N canvas 0 0 450 300 (subpatch) 0;
#X array sample6 1e+007 float 0;
#X coords 0 1 1e+007 -1 200 140 1;
#X restore 362 179 graph;
#N canvas 0 0 450 300 (subpatch) 0;
#X array sample7 50000 float 0;
#X coords 0 1 50000 -1 200 140 1;
#X restore 361 339 graph;
#N canvas 0 0 450 300 (subpatch) 0;
#X array sample8 50000 float 0;
#X coords 0 1 50000 -1 200 140 1;
#X restore 363 493 graph;
#N canvas 0 0 450 300 (subpatch) 0;
#X array sample9 50000 float 0;
#X coords 0 1 50000 -1 200 140 1;
#X restore 639 27 graph;
#N canvas 0 0 450 300 (subpatch) 0;
#X array sample10 999999 float 0;
#X coords 0 1 999998 -1 200 140 1;
#X restore 641 180 graph;
#N canvas 0 0 450 300 (subpatch) 0;
#X array sample11 50000 float 0;
#X coords 0 1 50000 -1 200 140 1;
#X restore 640 340 graph;
#N canvas 0 0 452 302 (subpatch) 0;
#X array sample12 50000 float 0;
#X coords 0 1 50000 -1 200 140 1;
#X restore 642 494 graph;
#N canvas 0 0 450 300 (subpatch) 0;
#X array sample13 50000 float 0;
#X coords 0 1 50000 -1 200 140 1;
#X restore 935 27 graph;
#N canvas 0 0 450 300 (subpatch) 0;
#X array sample14 50000 float 0;
#X coords 0 1 50000 -1 200 140 1;
#X restore 934 183 graph;
#N canvas 0 0 450 300 (subpatch) 0;
#X array sample15 50000 float 0;
#X coords 0 1 50000 -1 200 140 1;
#X restore 933 343 graph;
#N canvas 0 0 452 302 (subpatch) 0;
#X array sample16 50000 float 0;
#X coords 0 1 50000 -1 200 140 1;
#X restore 935 497 graph;
#X restore 171 538 pd samples;
#X msg 776 428 read ./remixb/snare2.wav sample5;
#X msg 1063 485 read ./remixb/strings.wav sample10;
#X msg 775 578 read ./remixb/string1.wav sample7;
#X msg 769 652 read ./remixb/string2.wav sample8;
#X msg 772 505 read ./remixb/daccapella.wav sample6;
#X msg 408 367 read piano1.wav sample1;
#X msg 499 446 read 20cl.wav sample2;
#X msg 494 522 read saxrain.wav sample3;
#X msg 487 595 read jazz-spain.wav sample4;
#X connect 0 0 48 0;
#X connect 1 0 2 0;
#X connect 2 0 4 0;
#X connect 3 0 4 1;
#X connect 4 0 8 0;
#X connect 5 0 3 0;
#X connect 6 0 7 0;
#X connect 7 0 3 0;
#X connect 9 0 10 0;
#X connect 10 0 8 0;
#X connect 11 0 6 0;
#X connect 12 0 6 0;
#X connect 13 0 86 0;
#X connect 14 0 19 0;
#X connect 15 0 14 0;
#X connect 19 0 18 0;
#X connect 20 0 23 0;
#X connect 21 0 20 0;
#X connect 23 0 22 0;
#X connect 24 0 42 0;
#X connect 25 0 24 0;
#X connect 27 0 43 0;
#X connect 28 0 27 0;
#X connect 30 0 44 0;
#X connect 31 0 30 0;
#X connect 33 0 45 0;
#X connect 34 0 33 0;
#X connect 36 0 46 0;
#X connect 37 0 36 0;
#X connect 39 0 47 0;
#X connect 40 0 39 0;
#X connect 42 0 26 0;
#X connect 43 0 29 0;
#X connect 44 0 32 0;
#X connect 45 0 35 0;
#X connect 46 0 38 0;
#X connect 47 0 41 0;
#X connect 48 0 9 0;
#X connect 48 0 12 0;
#X connect 48 0 5 0;
#X connect 48 1 7 0;
#X connect 48 1 11 0;
#X connect 48 2 86 0;
#X connect 48 3 15 0;
#X connect 48 4 21 0;
#X connect 48 5 25 0;
#X connect 48 6 28 0;
#X connect 48 7 31 0;
#X connect 48 8 34 0;
#X connect 48 9 37 0;
#X connect 48 10 40 0;
#X connect 49 0 87 0;
#X connect 51 0 88 0;
#X connect 53 0 89 0;
#X connect 55 0 81 0;
#X connect 57 0 85 0;
#X connect 59 0 83 0;
#X connect 61 0 84 0;
#X connect 63 0 65 0;
#X connect 65 0 64 0;
#X connect 66 0 82 0;
#X connect 68 0 76 0;
#X connect 70 0 77 0;
#X connect 72 0 78 0;
#X connect 74 0 79 0;
#X connect 76 0 69 0;
#X connect 77 0 71 0;
#X connect 78 0 73 0;
#X connect 79 0 75 0;
#X connect 81 0 56 0;
#X connect 82 0 67 0;
#X connect 83 0 60 0;
#X connect 84 0 62 0;
#X connect 85 0 58 0;
#X connect 86 0 17 0;
#X connect 87 0 50 0;
#X connect 88 0 52 0;
#X connect 89 0 54 0;
#X restore 16 176 pd sample-tables;
#N canvas 746 369 1280 730 video_mixer 0;
#X obj 100 196 gemhead;
#X floatatom 230 165 5 0 0 0 - - -;
#X msg 160 166 auto \$1;
#X obj 160 147 tgl 15 0 empty empty empty 20 8 0 8 -262144 -1 -1 0
1;
#X floatatom 134 271 5 0 0 0 - - -;
#X msg 207 402 -1 -2 -1 -2 8 -2 1 -2 1;
#X obj 100 477 pix_convolve 3 3;
#X text 222 144 frame;
#N canvas 243 65 604 505 README 0;
#X text 49 38 the pix_film is the same as pix_movie but does not texture
the movie immediately onto a Geo.;
#X text 50 77 therefore it is possible to manipulate the frames;
#X text 48 106 the pix_film object will return the movie in it's (more
or less) native color-space. most of the times \, this will probably
be not RGBA but RGB or BGR (on windows machines).;
#X text 48 153 do not worry about this. however \, most of the pix-manips
will only work correctly on RGBA-pixes. if this is the case and you
send it a non-RGBA pixture it will say something like "pix_object cannot
handle gray image".;
#X text 49 226 to avoid this \, you can convert your pix-buff to RGBA
using "pix_rgba". this will be a no-cost operation if the pix_buf already
is in RGBA.;
#X text 36 334 you might notice a significant performance-enhancement
by just turning the [pix_rgba] off (via the toggle). however \, not
[pix_rgba] is expensive but actually the [pix_convolve] (which appears
to do nothing when initialized with "0 0 0 0 1 0 0 0 0". When [pix_rgba]
is "off" \, the [pix_convolve] will be bypassed \, and therefore be
very fast.;
#X restore 448 285 pd README;
#X obj 100 583 square 4;
#X obj 100 243 pix_film;
#X floatatom 159 557 5 0 0 0 - - -;
#X text 276 459 manipulate the movie (expensive!);
#X text 433 407 edge detection;
#X msg 240 434 0.125 0.125 0.125 0.125 0.125 0.125 0.125 0.125 0.125
;
#X text 582 454 smoothing;
#X obj 299 262 t f;
#X text 188 309 transform the movie into RGBA-space (if turned off
\, [pix_convolve] will be by-passed and therefore much speed will be
"gained");
#X obj 120 449 tgl 15 0 empty empty empty 20 8 0 8 -262144 -1 -1 0
1;
#X obj 100 527 pix_texture;
#X obj 30 59 cnv 15 220 70 empty empty empty 20 12 0 14 -195568 -66577
0;
#N canvas 0 22 454 304 gemwin 0;
#X obj 132 136 gemwin;
#X obj 67 89 outlet;
#X obj 67 10 inlet;
#X obj 67 41 route create;
#X msg 67 70 set destroy;
#X msg 182 68 set create;
#X msg 132 112 create \, 1;
#X msg 238 112 destroy;
#N canvas 87 154 247 179 Gem.init 0;
#X obj 118 46 loadbang;
#X msg 118 81 reset;
#X obj 118 113 outlet;
#X connect 0 0 1 0;
#X connect 1 0 2 0;
#X restore 289 80 pd Gem.init;
#X connect 2 0 3 0;
#X connect 3 0 4 0;
#X connect 3 0 6 0;
#X connect 3 1 5 0;
#X connect 3 1 7 0;
#X connect 4 0 1 0;
#X connect 5 0 1 0;
#X connect 6 0 0 0;
#X connect 7 0 0 0;
#X connect 8 0 0 0;
#X restore 35 103 pd gemwin;
#X msg 35 79 destroy;
#X text 31 59 Create window and render;
#X obj 285 193 t a;
#X msg 65 319 thread 0;
#X msg 350 219 open \$1;
#X obj 350 197 symbol;
#X obj 411 197 openpanel;
#X obj 503 197 bng 15 250 50 0 empty empty empty 17 7 0 10 -262144
-1 -1;
#X obj 731 316 gemhead;
#X floatatom 861 285 5 0 0 0 - - -;
#X msg 791 286 auto \$1;
#X obj 791 267 tgl 15 0 empty empty empty 20 8 0 8 -262144 -1 -1 0
1;
#X floatatom 765 391 5 0 0 0 - - -;
#X text 853 264 frame;
#X obj 731 363 pix_film;
#X obj 853 378 t f;
#X obj 658 145 t a;
#X msg 696 439 thread 0;
#X msg 669 264 open \$1;
#X obj 669 242 symbol;
#X obj 730 242 openpanel;
#X obj 822 242 bng 15 250 50 0 empty empty empty 17 7 0 10 -262144
-1 -1;
#X obj 183 504 pix_mix 0;
#X text 435 489 comment;
#X obj 295 505 hsl 128 15 0.01 1 0 0 empty empty empty -2 -8 0 10 -262144
-1 -1 0 1;
#X text 731 290 comment;
#X text 412 245 comment;
#X msg 699 75 open futureA2.mp4;
#X obj 259 555 receive kicklevel;
#X obj 281 604 + 5;
#X msg 326 123 open telecom2.mp4;
#X connect 0 0 10 0;
#X connect 1 0 10 1;
#X connect 2 0 10 0;
#X connect 3 0 2 0;
#X connect 5 0 6 2;
#X connect 6 0 44 0;
#X connect 10 0 6 0;
#X connect 10 1 4 0;
#X connect 10 2 16 0;
#X connect 11 0 9 1;
#X connect 14 0 6 2;
#X connect 16 0 10 1;
#X connect 18 0 6 0;
#X connect 19 0 9 0;
#X connect 21 0 22 0;
#X connect 22 0 21 0;
#X connect 24 0 10 0;
#X connect 25 0 10 0;
#X connect 26 0 24 0;
#X connect 27 0 26 0;
#X connect 28 0 27 0;
#X connect 29 0 28 0;
#X connect 30 0 36 0;
#X connect 31 0 36 1;
#X connect 32 0 36 0;
#X connect 33 0 32 0;
#X connect 36 0 44 1;
#X connect 36 1 34 0;
#X connect 36 2 37 0;
#X connect 37 0 36 1;
#X connect 38 0 36 0;
#X connect 39 0 36 0;
#X connect 40 0 38 0;
#X connect 41 0 40 0;
#X connect 42 0 41 0;
#X connect 43 0 42 0;
#X connect 44 0 19 0;
#X connect 46 0 44 2;
#X connect 49 0 38 0;
#X connect 50 0 51 0;
#X connect 51 0 11 0;
#X connect 52 0 24 0;
#X restore 279 173 pd video_mixer;
