#N canvas 783 352 793 509 10;
#N canvas 266 264 899 542 eq 1;
#X obj 17 20 cnv 15 150 300 empty empty empty 20 12 0 14 -24198 -66577
0;
#X obj 240 40 tgl 15 1 empty empty empty 0 -6 0 8 -258699 -1 -1 0 1
;
#N canvas 0 0 456 306 using 0;
#X obj 67 239 outlet~;
#X obj 65 134 biquad~;
#X obj 66 154 biquad~;
#X obj 66 174 biquad~;
#X obj 35 110 lowpass 370 310;
#X obj 194 134 biquad~;
#X obj 193 154 biquad~;
#X obj 194 174 biquad~;
#X obj 163 111 bandpass 1175 490;
#X obj 305 111 highpass 2350 130;
#X obj 334 134 biquad~;
#X obj 334 154 biquad~;
#X obj 163 25 loadbang;
#X obj 193 239 outlet~;
#X obj 335 239 outlet~;
#X obj 66 25 inlet~ signal;
#X obj 235 54 switch~;
#X obj 235 25 inlet switch;
#X connect 1 0 2 0;
#X connect 2 0 3 0;
#X connect 3 0 0 0;
#X connect 4 0 1 0;
#X connect 4 0 2 0;
#X connect 4 0 3 0;
#X connect 5 0 6 0;
#X connect 6 0 7 0;
#X connect 7 0 13 0;
#X connect 8 0 5 0;
#X connect 8 0 6 0;
#X connect 8 0 7 0;
#X connect 9 0 10 0;
#X connect 9 0 11 0;
#X connect 10 0 11 0;
#X connect 11 0 14 0;
#X connect 12 0 4 0;
#X connect 12 0 8 0;
#X connect 12 0 9 0;
#X connect 15 0 1 0;
#X connect 15 0 5 0;
#X connect 15 0 10 0;
#X connect 17 0 16 0;
#X restore 248 157 pd using GGEE filter objects;
#N canvas 0 0 733 436 using 0;
#X obj 66 25 inlet~;
#X obj 67 369 outlet~;
#X obj 193 369 outlet~;
#X obj 335 369 outlet~;
#X obj 66 80 biquad~ 1.86972 -0.872325 0.000650245 0.00130049 0.000650245
;
#X text 185 59 lo x3;
#X obj 66 100 biquad~ 1.86972 -0.872325 0.000650245 0.00130049 0.000650245
;
#X obj 66 120 biquad~ 1.86972 -0.872325 0.000650245 0.00130049 0.000650245
;
#X obj 194 172 biquad~ 1.36591 -0.385279 0.307361 0 -0.307361;
#X text 329 152 mid x3;
#X obj 194 192 biquad~ 1.36591 -0.385279 0.307361 0 -0.307361;
#X obj 194 212 biquad~ 1.36591 -0.385279 0.307361 0 -0.307361;
#X obj 336 263 biquad~ 1.63386 -0.729864 0.840931 -1.68186 0.840931
;
#X text 476 241 hi x2;
#X obj 336 283 biquad~ 1.63386 -0.729864 0.840931 -1.68186 0.840931
;
#X obj 255 54 switch~;
#X obj 255 25 inlet switch;
#X connect 0 0 4 0;
#X connect 0 0 8 0;
#X connect 0 0 12 0;
#X connect 4 0 6 0;
#X connect 6 0 7 0;
#X connect 7 0 1 0;
#X connect 8 0 10 0;
#X connect 10 0 11 0;
#X connect 11 0 2 0;
#X connect 12 0 14 0;
#X connect 14 0 3 0;
#X connect 16 0 15 0;
#X restore 510 156 pd using raw biquad~ objects;
#X obj 200 42 tgl 15 1 empty empty empty 0 -6 0 8 -258699 -1 -1 0 1
;
#X obj 28 182 hsl 128 15 0 1 0 1 empty empty dry/wet -2 -6 0 8 -241291
-1 -1 12700 1;
#X obj 28 34 vsl 15 128 0 1 0 1 empty empty BASS 0 -8 0 8 -44926 -1
-1 12700 1;
#X obj 83 34 vsl 15 128 0 1 0 1 empty empty MIDS 0 -8 0 8 -44926 -1
-1 12700 1;
#X obj 142 34 vsl 15 128 0 1 0 1 empty empty HIGHS 0 -8 0 8 -44926
-1 -1 12600 1;
#N canvas 401 243 536 477 output_mixer 0;
#X obj 39 11 inlet dry/wet;
#X obj 22 -19 inlet~ dry;
#X obj 248 -19 inlet~ bass;
#X obj 338 -19 inlet~ mids;
#X obj 424 -19 inlet~ highs;
#X obj 87 35 inlet bass;
#X obj 127 60 inlet mids;
#X obj 157 86 inlet highs;
#X obj 22 327 outlet~;
#X obj 111 235 *~;
#X obj 141 235 *~;
#X obj 71 235 *~;
#X obj 23 288 *~;
#X obj 70 288 *~;
#X obj 39 35 * -1;
#X obj 39 57 + 1;
#X connect 0 0 14 0;
#X connect 0 0 13 1;
#X connect 1 0 12 0;
#X connect 2 0 11 0;
#X connect 3 0 9 0;
#X connect 4 0 10 0;
#X connect 5 0 11 1;
#X connect 6 0 9 1;
#X connect 7 0 10 1;
#X connect 9 0 13 0;
#X connect 10 0 13 0;
#X connect 11 0 13 0;
#X connect 12 0 8 0;
#X connect 13 0 8 0;
#X connect 14 0 15 0;
#X connect 15 0 12 1;
#X restore 177 263 pd output_mixer;
#X obj 439 95 tgl 15 1 empty empty ON 0 -6 0 8 -258699 -1 -1 1 1;
#X obj 647 95 tgl 15 1 empty empty ON 0 -6 0 8 -258699 -1 -1 0 1;
#X text 258 40 <--choose your source;
#X obj 410 20 cnv 15 255 20 empty empty empty 20 12 0 14 -24198 -66577
0;
#X text 411 22 Test version for DJ-style 3-band EQ.;
#X obj 555 300 cnv 15 110 20 empty empty empty 20 12 0 14 -24198 -66577
0;
#X text 558 302 derek at umatic.nl;
#X obj 224 67 *~;
#X obj 176 67 *~;
#X obj 355 59 inlet~;
#X obj 246 317 outlet~;
#X obj 14 -3 inlet;
#X obj 74 -6 inlet;
#X obj 130 -3 inlet;
#X connect 1 0 17 1;
#X connect 2 0 9 5;
#X connect 2 1 9 6;
#X connect 2 2 9 7;
#X connect 3 0 9 5;
#X connect 3 1 9 6;
#X connect 3 2 9 7;
#X connect 4 0 18 1;
#X connect 5 0 9 1;
#X connect 6 0 9 2;
#X connect 7 0 9 3;
#X connect 8 0 9 4;
#X connect 9 0 20 0;
#X connect 10 0 2 1;
#X connect 11 0 3 1;
#X connect 17 0 3 0;
#X connect 17 0 9 0;
#X connect 17 0 2 0;
#X connect 18 0 3 0;
#X connect 18 0 9 0;
#X connect 18 0 2 0;
#X connect 19 0 2 0;
#X connect 19 0 3 0;
#X connect 21 0 6 0;
#X connect 22 0 7 0;
#X connect 23 0 8 0;
#X restore 469 109 pd eq;
#X obj 284 33 bng 15 250 50 0 empty empty empty 0 -6 0 8 -262144 -1
-1;
#X obj 123 125 vsl 15 128 0 100 0 0 empty empty GAIN 0 -8 0 8 -4034
-1 -1 12573 1;
#X obj 149 264 hsl 64 15 -100 100 0 0 empty empty PAN_FADER -2 -6 0
8 -4034 -1 -1 3150 1;
#X obj 376 54 loadbang;
#X msg 283 51 0;
#X msg 330 52 99;
#X floatatom 140 313 5 0 0 0 - - -;
#X floatatom 188 314 5 0 0 0 - - -;
#X floatatom 236 315 5 0 0 0 - - -;
#X floatatom 287 314 5 0 0 0 - - -;
#X obj 473 68 inlet~;
#X obj 147 130 vu 15 120 empty empty -1 -8 0 10 -66577 -1 1 0;
#X obj 470 263 dac~;
#X obj 396 369 env~;
#X obj 196 130 vu 15 120 empty empty -1 -8 0 10 -66577 -1 1 0;
#X obj 458 370 env~;
#X obj 457 414 - 100;
#X obj 395 413 - 100;
#X obj 116 264 tgl 15 0 empty mute_receive M 17 7 0 10 -204800 -1 -1
0 1;
#X floatatom 391 185 5 0 0 0 - - -;
#X msg 10 164 0;
#X msg 41 326 0;
#X floatatom 19 272 5 0 0 0 - - -;
#X text 29 334 comment;
#X obj 13 299 select 0 1;
#X obj 10 210 send mute_receive;
#X msg 8 191 set \$1;
#X text 0 145 reset mute value;
#X obj 570 68 inlet~;
#X obj 470 220 reverb-component;
#X text 119 294 reverb-FB level comb-FB comb-level;
#X floatatom 171 408 5 0 0 0 - - -;
#X obj 173 280 bng 15 250 50 0 empty empty C 17 7 0 10 -262144 -1 -1
;
#X msg 249 375 0;
#X obj 257 131 vsl 15 128 0 1 0 1 empty empty BASS 0 -8 0 8 -44926
-1 -1 12700 1;
#X obj 286 131 vsl 15 128 0 1 0 1 empty empty MIDS 0 -8 0 8 -44926
-1 -1 12700 1;
#X obj 312 131 vsl 15 128 0 1 0 1 empty empty HIGHS 0 -8 0 8 -44926
-1 -1 12600 1;
#X connect 0 0 30 0;
#X connect 1 0 30 2;
#X connect 2 0 20 0;
#X connect 2 0 21 0;
#X connect 3 0 30 3;
#X connect 3 0 32 0;
#X connect 4 0 5 0;
#X connect 4 0 6 0;
#X connect 5 0 3 0;
#X connect 6 0 2 0;
#X connect 7 0 30 4;
#X connect 8 0 30 5;
#X connect 9 0 30 6;
#X connect 10 0 30 7;
#X connect 11 0 0 3;
#X connect 14 0 18 0;
#X connect 16 0 17 0;
#X connect 17 0 15 0;
#X connect 18 0 12 0;
#X connect 19 0 23 0;
#X connect 20 0 30 1;
#X connect 21 0 27 0;
#X connect 22 0 20 0;
#X connect 23 0 25 0;
#X connect 25 0 2 0;
#X connect 25 1 22 0;
#X connect 27 0 26 0;
#X connect 30 0 13 0;
#X connect 30 0 14 0;
#X connect 30 1 13 1;
#X connect 30 1 16 0;
#X connect 33 0 34 0;
#X connect 34 0 3 0;
#X connect 35 0 0 0;
#X connect 36 0 0 1;
#X connect 37 0 0 2;
#X coords 0 -1 1 1 256 256 1 100 100;
