#N canvas 255 36 845 632 12;
#X obj 96 43 inlet~;
#X obj 295 242 +~;
#X obj 453 225 +~;
#X obj 197 261 outlet~;
#X obj 374 254 outlet~;
#X obj 261 347 +~;
#X obj 629 338 +~;
#X obj 418 344 -~;
#X obj 801 337 -~;
#X obj 261 401 +~;
#X obj 421 407 +~;
#X obj 625 417 -~;
#X obj 795 398 -~;
#X obj 630 484 *~ 0;
#X obj 630 521 lop~ 5000;
#X obj 425 482 *~ 0;
#X obj 425 520 lop~ 5000;
#X obj 256 485 *~ 0;
#X obj 256 523 lop~ 5000;
#X obj 831 482 *~ 0;
#X obj 831 516 lop~ 5000;
#X obj 934 264 inlet;
#X obj 934 288 moses 100;
#X obj 936 335 moses -100;
#X msg 989 313 100;
#X msg 940 359 -100;
#X obj 944 396 / 200;
#X obj 306 167 delread~ \$0a 70;
#N canvas 0 0 458 308 echo 0;
#X obj 76 105 inlet~;
#X obj 140 106 inlet~;
#X obj 79 226 outlet~;
#X obj 144 227 outlet~;
#X obj 77 153 +~;
#X obj 143 153 -~;
#X obj 144 177 delwrite~ \$1 \$2;
#X obj 143 203 delread~ \$1 \$2;
#X connect 0 0 4 0;
#X connect 0 0 5 0;
#X connect 1 0 4 1;
#X connect 1 0 5 1;
#X connect 4 0 2 0;
#X connect 5 0 6 0;
#X connect 7 0 3 0;
#X restore 79 78 pd echo \$0a 5.43216;
#X obj 235 565 delwrite~ \$0a 70;
#N canvas 0 0 454 304 echo 0;
#X obj 76 105 inlet~;
#X obj 140 106 inlet~;
#X obj 79 226 outlet~;
#X obj 144 227 outlet~;
#X obj 77 153 +~;
#X obj 143 153 -~;
#X obj 144 177 delwrite~ \$1 \$2;
#X obj 143 203 delread~ \$1 \$2;
#X connect 0 0 4 0;
#X connect 0 0 5 0;
#X connect 1 0 4 1;
#X connect 1 0 5 1;
#X connect 4 0 2 0;
#X connect 5 0 6 0;
#X connect 7 0 3 0;
#X restore 78 105 pd echo \$0b 8.45346;
#N canvas 0 0 454 304 echo 0;
#X obj 76 105 inlet~;
#X obj 140 106 inlet~;
#X obj 79 226 outlet~;
#X obj 144 227 outlet~;
#X obj 77 153 +~;
#X obj 143 153 -~;
#X obj 144 177 delwrite~ \$1 \$2;
#X obj 143 203 delread~ \$1 \$2;
#X connect 0 0 4 0;
#X connect 0 0 5 0;
#X connect 1 0 4 1;
#X connect 1 0 5 1;
#X connect 4 0 2 0;
#X connect 5 0 6 0;
#X connect 7 0 3 0;
#X restore 76 135 pd echo \$0c 13.4367;
#N canvas 0 0 454 304 echo 0;
#X obj 76 105 inlet~;
#X obj 140 106 inlet~;
#X obj 79 226 outlet~;
#X obj 144 227 outlet~;
#X obj 77 153 +~;
#X obj 143 153 -~;
#X obj 144 177 delwrite~ \$1 \$2;
#X obj 143 203 delread~ \$1 \$2;
#X connect 0 0 4 0;
#X connect 0 0 5 0;
#X connect 1 0 4 1;
#X connect 1 0 5 1;
#X connect 4 0 2 0;
#X connect 5 0 6 0;
#X connect 7 0 3 0;
#X restore 77 159 pd echo \$0d 21.5463;
#N canvas 0 0 454 304 echo 0;
#X obj 76 105 inlet~;
#X obj 140 106 inlet~;
#X obj 79 226 outlet~;
#X obj 144 227 outlet~;
#X obj 77 153 +~;
#X obj 143 153 -~;
#X obj 144 177 delwrite~ \$1 \$2;
#X obj 143 203 delread~ \$1 \$2;
#X connect 0 0 4 0;
#X connect 0 0 5 0;
#X connect 1 0 4 1;
#X connect 1 0 5 1;
#X connect 4 0 2 0;
#X connect 5 0 6 0;
#X connect 7 0 3 0;
#X restore 73 183 pd echo \$0e 34.3876;
#N canvas 0 0 454 304 echo 0;
#X obj 76 105 inlet~;
#X obj 140 106 inlet~;
#X obj 79 226 outlet~;
#X obj 144 227 outlet~;
#X obj 77 153 +~;
#X obj 143 153 -~;
#X obj 144 177 delwrite~ \$1 \$2;
#X obj 143 203 delread~ \$1 \$2;
#X connect 0 0 4 0;
#X connect 0 0 5 0;
#X connect 1 0 4 1;
#X connect 1 0 5 1;
#X connect 4 0 2 0;
#X connect 5 0 6 0;
#X connect 7 0 3 0;
#X restore 73 209 pd echo \$0f 55.5437;
#X obj 475 167 delread~ \$0b 81.9345;
#X obj 676 164 delread~ \$0c 94.7545;
#X obj 865 164 delread~ \$0d 115.945;
#X obj 426 555 delwrite~ \$0b 81.9345;
#X obj 632 555 delwrite~ \$0c 94.7545;
#X obj 829 555 delwrite~ \$0d 115.945;
#X connect 0 0 28 0;
#X connect 1 0 3 0;
#X connect 1 0 5 0;
#X connect 1 0 7 0;
#X connect 2 0 4 0;
#X connect 2 0 6 0;
#X connect 2 0 8 0;
#X connect 5 0 9 0;
#X connect 5 0 11 0;
#X connect 6 0 11 1;
#X connect 6 0 9 1;
#X connect 7 0 10 0;
#X connect 7 0 12 0;
#X connect 8 0 10 1;
#X connect 8 0 12 1;
#X connect 9 0 13 0;
#X connect 10 0 15 0;
#X connect 11 0 17 0;
#X connect 12 0 19 0;
#X connect 13 0 14 0;
#X connect 14 0 39 0;
#X connect 15 0 16 0;
#X connect 16 0 38 0;
#X connect 17 0 18 0;
#X connect 18 0 29 0;
#X connect 19 0 20 0;
#X connect 20 0 40 0;
#X connect 21 0 22 0;
#X connect 22 0 23 0;
#X connect 22 1 24 0;
#X connect 23 0 25 0;
#X connect 23 1 26 0;
#X connect 24 0 23 0;
#X connect 25 0 26 0;
#X connect 26 0 19 1;
#X connect 26 0 17 1;
#X connect 26 0 15 1;
#X connect 26 0 13 1;
#X connect 27 0 1 1;
#X connect 28 0 30 0;
#X connect 30 0 31 0;
#X connect 31 0 32 0;
#X connect 32 0 33 0;
#X connect 33 0 34 0;
#X connect 34 0 1 0;
#X connect 34 1 2 0;
#X connect 35 0 2 1;
#X connect 36 0 5 1;
#X connect 36 0 7 1;
#X connect 37 0 6 1;
#X connect 37 0 8 1;
