#N canvas 639 311 832 583 12;
#X obj 17 156 dbtorms;
#X obj 17 189 pack 0 50;
#X obj 18 227 line~;
#X obj 8 276 inlet~;
#X obj 16 320 *~;
#X obj 189 27 inlet;
#X obj 170 241 tgl 15 0 empty empty empty 0 -6 0 8 -262144 -1 -1 1
1;
#X obj 224 75 inlet;
#X obj 104 298 pack 0 50;
#X obj 100 324 line~;
#X obj 228 192 loadbang;
#X obj 12 423 *~;
#X obj 85 417 *~;
#X floatatom 304 307 5 -100 100 0 - - -;
#X obj 368 375 + 100;
#X floatatom 370 424 5 0 100 0 - - -;
#X obj 370 335 moses 1;
#X obj 238 350 moses 0;
#X obj 266 407 -;
#X msg 248 383 100;
#X floatatom 206 420 5 0 0 0 - - -;
#X obj 188 453 dbtorms;
#X obj 380 457 dbtorms;
#X obj 187 481 pack 0 50;
#X obj 187 512 line~;
#X obj 381 486 pack 0 50;
#X obj 381 517 line~;
#X msg 321 260 0;
#X obj 580 289 pack 0 50;
#X obj 494 301 *~;
#X obj 573 338 line~;
#X obj 609 260 dbtorms;
#X obj 508 40 inlet;
#X obj 619 51 inlet;
#N canvas 0 0 454 304 reverb 0;
#X obj 106 53 inlet~;
#X obj 305 252 +~;
#X obj 463 235 +~;
#X obj 207 271 outlet~;
#X obj 384 264 outlet~;
#X obj 271 357 +~;
#X obj 639 348 +~;
#X obj 428 354 -~;
#X obj 811 347 -~;
#X obj 271 411 +~;
#X obj 431 417 +~;
#X obj 635 427 -~;
#X obj 805 408 -~;
#X obj 640 494 *~ 0;
#X obj 640 531 lop~ 5000;
#X obj 435 492 *~ 0;
#X obj 435 530 lop~ 5000;
#X obj 266 495 *~ 0;
#X obj 266 533 lop~ 5000;
#X obj 841 492 *~ 0;
#X obj 841 526 lop~ 5000;
#X obj 944 274 inlet;
#X obj 944 298 moses 100;
#X obj 946 345 moses -100;
#X msg 999 323 100;
#X msg 950 369 -100;
#X obj 954 406 / 200;
#X obj 316 177 delread~ \$0a 70;
#N canvas 0 0 458 308 echo 0;
#X obj 76 105 inlet~;
#X obj 140 106 inlet~;
#X obj 79 226 outlet~;
#X obj 144 227 outlet~;
#X obj 77 153 +~;
#X obj 143 153 -~;
#X obj 144 177 delwrite~ \$1 \$2;
#X obj 143 203 delread~ \$1 \$2;
#X connect 0 0 4 0;
#X connect 0 0 5 0;
#X connect 1 0 4 1;
#X connect 1 0 5 1;
#X connect 4 0 2 0;
#X connect 5 0 6 0;
#X connect 7 0 3 0;
#X restore 89 88 pd echo \$0a 5.43216;
#X obj 245 575 delwrite~ \$0a 70;
#N canvas 0 0 454 304 echo 0;
#X obj 76 105 inlet~;
#X obj 140 106 inlet~;
#X obj 79 226 outlet~;
#X obj 144 227 outlet~;
#X obj 77 153 +~;
#X obj 143 153 -~;
#X obj 144 177 delwrite~ \$1 \$2;
#X obj 143 203 delread~ \$1 \$2;
#X connect 0 0 4 0;
#X connect 0 0 5 0;
#X connect 1 0 4 1;
#X connect 1 0 5 1;
#X connect 4 0 2 0;
#X connect 5 0 6 0;
#X connect 7 0 3 0;
#X restore 88 115 pd echo \$0b 8.45346;
#N canvas 0 0 454 304 echo 0;
#X obj 76 105 inlet~;
#X obj 140 106 inlet~;
#X obj 79 226 outlet~;
#X obj 144 227 outlet~;
#X obj 77 153 +~;
#X obj 143 153 -~;
#X obj 144 177 delwrite~ \$1 \$2;
#X obj 143 203 delread~ \$1 \$2;
#X connect 0 0 4 0;
#X connect 0 0 5 0;
#X connect 1 0 4 1;
#X connect 1 0 5 1;
#X connect 4 0 2 0;
#X connect 5 0 6 0;
#X connect 7 0 3 0;
#X restore 86 145 pd echo \$0c 13.4367;
#N canvas 0 0 454 304 echo 0;
#X obj 76 105 inlet~;
#X obj 140 106 inlet~;
#X obj 79 226 outlet~;
#X obj 144 227 outlet~;
#X obj 77 153 +~;
#X obj 143 153 -~;
#X obj 144 177 delwrite~ \$1 \$2;
#X obj 143 203 delread~ \$1 \$2;
#X connect 0 0 4 0;
#X connect 0 0 5 0;
#X connect 1 0 4 1;
#X connect 1 0 5 1;
#X connect 4 0 2 0;
#X connect 5 0 6 0;
#X connect 7 0 3 0;
#X restore 87 169 pd echo \$0d 21.5463;
#N canvas 0 0 454 304 echo 0;
#X obj 76 105 inlet~;
#X obj 140 106 inlet~;
#X obj 79 226 outlet~;
#X obj 144 227 outlet~;
#X obj 77 153 +~;
#X obj 143 153 -~;
#X obj 144 177 delwrite~ \$1 \$2;
#X obj 143 203 delread~ \$1 \$2;
#X connect 0 0 4 0;
#X connect 0 0 5 0;
#X connect 1 0 4 1;
#X connect 1 0 5 1;
#X connect 4 0 2 0;
#X connect 5 0 6 0;
#X connect 7 0 3 0;
#X restore 83 193 pd echo \$0e 34.3876;
#N canvas 0 0 454 304 echo 0;
#X obj 76 105 inlet~;
#X obj 140 106 inlet~;
#X obj 79 226 outlet~;
#X obj 144 227 outlet~;
#X obj 77 153 +~;
#X obj 143 153 -~;
#X obj 144 177 delwrite~ \$1 \$2;
#X obj 143 203 delread~ \$1 \$2;
#X connect 0 0 4 0;
#X connect 0 0 5 0;
#X connect 1 0 4 1;
#X connect 1 0 5 1;
#X connect 4 0 2 0;
#X connect 5 0 6 0;
#X connect 7 0 3 0;
#X restore 83 219 pd echo \$0f 55.5437;
#X obj 485 177 delread~ \$0b 81.9345;
#X obj 686 174 delread~ \$0c 94.7545;
#X obj 875 174 delread~ \$0d 115.945;
#X obj 436 565 delwrite~ \$0b 81.9345;
#X obj 642 565 delwrite~ \$0c 94.7545;
#X obj 839 565 delwrite~ \$0d 115.945;
#X connect 0 0 28 0;
#X connect 1 0 3 0;
#X connect 1 0 5 0;
#X connect 1 0 7 0;
#X connect 2 0 4 0;
#X connect 2 0 6 0;
#X connect 2 0 8 0;
#X connect 5 0 9 0;
#X connect 5 0 11 0;
#X connect 6 0 11 1;
#X connect 6 0 9 1;
#X connect 7 0 10 0;
#X connect 7 0 12 0;
#X connect 8 0 10 1;
#X connect 8 0 12 1;
#X connect 9 0 13 0;
#X connect 10 0 15 0;
#X connect 11 0 17 0;
#X connect 12 0 19 0;
#X connect 13 0 14 0;
#X connect 14 0 39 0;
#X connect 15 0 16 0;
#X connect 16 0 38 0;
#X connect 17 0 18 0;
#X connect 18 0 29 0;
#X connect 19 0 20 0;
#X connect 20 0 40 0;
#X connect 21 0 22 0;
#X connect 22 0 23 0;
#X connect 22 1 24 0;
#X connect 23 0 25 0;
#X connect 23 1 26 0;
#X connect 24 0 23 0;
#X connect 25 0 26 0;
#X connect 26 0 19 1;
#X connect 26 0 17 1;
#X connect 26 0 15 1;
#X connect 26 0 13 1;
#X connect 27 0 1 1;
#X connect 28 0 30 0;
#X connect 30 0 31 0;
#X connect 31 0 32 0;
#X connect 32 0 33 0;
#X connect 33 0 34 0;
#X connect 34 0 1 0;
#X connect 34 1 2 0;
#X connect 35 0 2 1;
#X connect 36 0 5 1;
#X connect 36 0 7 1;
#X connect 37 0 6 1;
#X connect 37 0 8 1;
#X restore 494 225 pd reverb;
#X obj 400 66 inlet;
#X obj 671 353 / 100;
#X obj 16 382 *~;
#X text 246 53 mute;
#X text 394 26 fader;
#X text 505 16 reverb feedback;
#X text 598 33 reverb level;
#X text 713 31 comb level;
#X obj 721 53 inlet;
#X obj 16 356 *~ 1;
#X obj 673 321 moses 100;
#X obj 530 177 moses 100;
#X obj 615 230 moses 100;
#N canvas 0 0 456 306 creverb 0;
#X obj 94 47 inlet~;
#X obj 84 256 outlet~;
#X obj 127 142 delread~ \$0-comb \$1;
#X obj 128 107 delwrite~ \$0-comb 100;
#X obj 300 62 inlet;
#X obj 99 85 +~;
#X obj 170 177 *~;
#X obj 177 229 lop~ 3000;
#X connect 0 0 5 0;
#X connect 2 0 1 0;
#X connect 2 0 6 0;
#X connect 4 0 6 1;
#X connect 5 0 3 0;
#X connect 6 0 7 0;
#X connect 7 0 5 1;
#X restore 582 386 pd creverb;
#X obj 584 441 *~;
#X obj 784 290 pack 0 50;
#X obj 777 339 line~;
#X obj 813 261 dbtorms;
#X obj 823 52 inlet;
#X obj 819 231 moses 100;
#X text 802 34 creverb level;
#X obj 6 524 outlet~;
#X obj 84 537 outlet~;
#X text 180 6 gain;
#X connect 0 0 1 0;
#X connect 1 0 2 0;
#X connect 2 0 4 1;
#X connect 3 0 4 0;
#X connect 4 0 34 0;
#X connect 4 0 48 0;
#X connect 4 0 44 0;
#X connect 5 0 0 0;
#X connect 6 0 8 0;
#X connect 7 0 6 0;
#X connect 8 0 9 0;
#X connect 9 0 37 1;
#X connect 10 0 6 0;
#X connect 10 0 27 0;
#X connect 11 0 56 0;
#X connect 12 0 57 0;
#X connect 13 0 16 0;
#X connect 13 0 17 0;
#X connect 14 0 15 0;
#X connect 15 0 22 0;
#X connect 16 0 14 0;
#X connect 17 1 18 1;
#X connect 17 1 19 0;
#X connect 18 0 20 0;
#X connect 19 0 18 0;
#X connect 20 0 21 0;
#X connect 21 0 23 0;
#X connect 22 0 25 0;
#X connect 23 0 24 0;
#X connect 24 0 11 1;
#X connect 25 0 26 0;
#X connect 26 0 12 1;
#X connect 27 0 13 0;
#X connect 28 0 30 0;
#X connect 29 0 44 0;
#X connect 30 0 29 1;
#X connect 31 0 28 0;
#X connect 32 0 46 0;
#X connect 33 0 47 0;
#X connect 34 0 29 0;
#X connect 35 0 13 0;
#X connect 36 0 48 1;
#X connect 37 0 11 0;
#X connect 37 0 12 0;
#X connect 43 0 45 0;
#X connect 44 0 37 0;
#X connect 45 0 36 0;
#X connect 46 0 34 1;
#X connect 47 0 31 0;
#X connect 48 0 49 0;
#X connect 49 0 44 0;
#X connect 50 0 51 0;
#X connect 51 0 49 1;
#X connect 52 0 50 0;
#X connect 53 0 54 0;
#X connect 54 0 52 0;
